<svg xmlns="http://www.w3.org/2000/svg" xmlns:xlink="http://www.w3.org/1999/xlink" width="640" height="360" viewBox="0 0 640 360"><defs><clipPath id="a"><rect width="278.27" height="306.408" fill="none"/></clipPath></defs><g transform="translate(-894 1486)"><rect width="640" height="360" transform="translate(894 -1486)" fill="#bee2f4"/><g transform="translate(-1567.167 0)"><path d="M293.759,666.778a9.432,9.432,0,0,0-8.209,4.781,13.681,13.681,0,0,0-13.024-9.5c-.222,0-.442.006-.661.016a14.627,14.627,0,1,0-28.532,6.263,12.223,12.223,0,0,0-7.674,0,16.985,16.985,0,0,0-32.493,6.931c0,.011,0,.022,0,.033h99.983A9.437,9.437,0,0,0,293.759,666.778Z" transform="translate(2281 -1889.133)" fill="#fff"/><g transform="translate(2679.156 -1414.425)" opacity="0.61"><rect width="8.328" height="0.731" transform="translate(13.925 33.16) rotate(-61.218)" fill="#fff"/><rect width="8.328" height="0.731" transform="translate(9.563 41.1) rotate(-61.223)" fill="#fff"/><path d="M718.3,341.967l.572-1.042-.4-.217C718.418,341.127,718.358,341.547,718.3,341.967Z" transform="translate(-717.748 -282.951)" fill="#fff"/><rect width="8.328" height="0.731" transform="translate(18.286 25.22) rotate(-61.218)" fill="#fff"/><path d="M778.2,229.929q-.8.67-1.587,1.37l-.112.2.641.352Z" transform="translate(-753.855 -214.224)" fill="#fff"/><path d="M719.087,326.741l.627.345,4.01-7.3-.641-.352-3.989,7.261C719.092,326.711,719.089,326.726,719.087,326.741Z" transform="translate(-718.234 -269.753)" fill="#fff"/><rect width="8.328" height="0.731" transform="matrix(0.482, -0.876, 0.876, 0.482, 5.201, 49.04)" fill="#fff"/><rect width="8.328" height="0.731" transform="translate(4.418 69.283) rotate(-61.218)" fill="#fff"/><path d="M813.562,205.787l-.624-.342-.031.014-4,7.275.641.352Z" transform="translate(-773.961 -199.034)" fill="#fff"/><rect width="8.328" height="0.731" transform="translate(30.588 21.641) rotate(-61.214)" fill="#fff"/><path d="M821.951,204.134l-.262.115.152.084Z" transform="translate(-781.888 -198.22)" fill="#fff"/><rect width="8.328" height="0.731" transform="matrix(0.481, -0.876, 0.876, 0.481, 13.142, 53.402)" fill="#fff"/><rect width="8.328" height="0.731" transform="translate(8.78 61.343) rotate(-61.219)" fill="#fff"/><rect width="8.328" height="0.731" transform="matrix(0.481, -0.876, 0.876, 0.481, 26.227, 29.581)" fill="#fff"/><path d="M718.3,379.151c.052.406.107.812.166,1.217l3.985-7.256-.641-.352Z" transform="translate(-717.747 -302.836)" fill="#fff"/><rect width="8.328" height="0.731" transform="translate(21.865 37.522) rotate(-61.219)" fill="#fff"/><rect width="8.328" height="0.731" transform="translate(17.503 45.462) rotate(-61.219)" fill="#fff"/><rect width="8.328" height="0.731" transform="translate(38.529 26.003) rotate(-61.219)" fill="#fff"/><rect width="8.328" height="0.731" transform="translate(16.72 65.704) rotate(-61.219)" fill="#fff"/><rect width="8.328" height="0.731" transform="matrix(0.481, -0.876, 0.876, 0.481, 25.444, 49.824)" fill="#fff"/><rect width="8.328" height="0.731" transform="translate(29.805 41.883) rotate(-61.22)" fill="#fff"/><rect width="8.328" height="0.731" transform="matrix(0.481, -0.876, 0.876, 0.481, 42.891, 18.063)" fill="#fff"/><rect width="8.328" height="0.732" transform="translate(47.252 10.122) rotate(-61.221)" fill="#fff"/><rect width="8.328" height="0.731" transform="translate(12.359 73.645) rotate(-61.219)" fill="#fff"/><rect width="8.328" height="0.731" transform="translate(3.635 89.525) rotate(-61.22)" fill="#fff"/><rect width="8.328" height="0.731" transform="matrix(0.481, -0.876, 0.876, 0.481, 21.082, 57.764)" fill="#fff"/><path d="M853.914,193.009c-.32.073-.639.145-.957.223l-.148.268.641.352Z" transform="translate(-801.195 -191.318)" fill="#fff"/><rect width="8.328" height="0.731" transform="translate(7.997 81.585) rotate(-61.215)" fill="#fff"/><rect width="8.328" height="0.731" transform="matrix(0.481, -0.876, 0.876, 0.481, 34.167, 33.943)" fill="#fff"/><path d="M878.1,188.825c-.288.016-.576.032-.863.052l-3.51,6.389.641.352Z" transform="translate(-814.173 -188.723)" fill="#fff"/><rect width="8.328" height="0.731" transform="matrix(0.481, -0.876, 0.876, 0.481, 50.831, 22.424)" fill="#fff"/><rect width="8.328" height="0.731" transform="matrix(0.481, -0.876, 0.876, 0.481, 55.193, 14.484)" fill="#fff"/><rect width="8.328" height="0.731" transform="matrix(0.481, -0.876, 0.876, 0.481, 33.384, 54.185)" fill="#fff"/><path d="M738.438,443.082c.137.253.279.5.419.756l3.246-5.91-.641-.352Z" transform="translate(-730.239 -343.048)" fill="#fff"/><rect width="8.328" height="0.731" transform="matrix(0.481, -0.876, 0.876, 0.481, 20.299, 78.006)" fill="#fff"/><rect width="8.328" height="0.731" transform="matrix(0.481, -0.876, 0.876, 0.481, 46.469, 30.365)" fill="#fff"/><rect width="8.328" height="0.731" transform="matrix(0.481, -0.876, 0.876, 0.481, 24.661, 70.066)" fill="#fff"/><rect width="8.328" height="0.731" transform="matrix(0.481, -0.876, 0.876, 0.481, 37.746, 46.245)" fill="#fff"/><rect width="8.328" height="0.731" transform="matrix(0.481, -0.876, 0.876, 0.481, 11.575, 93.887)" fill="#fff"/><rect width="8.328" height="0.731" transform="translate(42.107 38.305) rotate(-61.219)" fill="#fff"/><rect width="8.328" height="0.731" transform="translate(29.022 62.126) rotate(-61.219)" fill="#fff"/><rect width="8.328" height="0.731" transform="matrix(0.481, -0.876, 0.876, 0.481, 15.937, 85.947)" fill="#fff"/><rect width="8.328" height="0.731" transform="translate(45.686 50.607) rotate(-61.219)" fill="#fff"/><rect width="8.328" height="0.731" transform="matrix(0.481, -0.876, 0.876, 0.481, 63.133, 18.846)" fill="#fff"/><rect width="8.328" height="0.731" transform="translate(67.495 10.905) rotate(-61.22)" fill="#fff"/><rect width="8.328" height="0.731" transform="matrix(0.481, -0.876, 0.876, 0.481, 28.239, 82.368)" fill="#fff"/><rect width="8.328" height="0.731" transform="translate(50.048 42.667) rotate(-61.219)" fill="#fff"/><rect width="8.328" height="0.731" transform="matrix(0.481, -0.876, 0.876, 0.481, 19.516, 98.249)" fill="#fff"/><path d="M753.137,471.848c.161.212.324.422.487.632l1.177-2.143-.641-.352Z" transform="translate(-739.358 -363.155)" fill="#fff"/><rect width="8.328" height="0.731" transform="translate(15.154 106.189) rotate(-61.218)" fill="#fff"/><path d="M908.439,189.2c-.265-.025-.53-.05-.795-.072l-1.509,2.746.641.352Z" transform="translate(-834.279 -188.912)" fill="#fff"/><rect width="8.328" height="0.731" transform="translate(58.771 26.786) rotate(-61.22)" fill="#fff"/><rect width="8.328" height="0.731" transform="matrix(0.481, -0.876, 0.876, 0.481, 41.324, 58.547)" fill="#fff"/><rect width="8.328" height="0.731" transform="matrix(0.481, -0.876, 0.876, 0.481, 54.409, 34.726)" fill="#fff"/><rect width="8.328" height="0.731" transform="translate(36.963 66.487) rotate(-61.22)" fill="#fff"/><rect width="8.328" height="0.731" transform="matrix(0.481, -0.876, 0.876, 0.481, 23.877, 90.308)" fill="#fff"/><rect width="8.328" height="0.731" transform="matrix(0.481, -0.876, 0.876, 0.481, 32.601, 74.428)" fill="#fff"/><rect width="8.328" height="0.731" transform="matrix(0.481, -0.876, 0.876, 0.481, 75.435, 15.267)" fill="#fff"/><rect width="8.328" height="0.731" transform="translate(62.35 39.088) rotate(-61.219)" fill="#fff"/><rect width="8.328" height="0.731" transform="translate(71.073 23.207) rotate(-61.22)" fill="#fff"/><rect width="8.328" height="0.732" transform="matrix(0.481, -0.876, 0.876, 0.481, 66.711, 31.148)" fill="#fff"/><rect width="8.328" height="0.731" transform="translate(36.179 86.73) rotate(-61.219)" fill="#fff"/><rect width="8.328" height="0.732" transform="matrix(0.481, -0.876, 0.876, 0.481, 40.541, 78.789)" fill="#fff"/><path d="M930.882,193.2c-.246-.059-.49-.122-.736-.179l-3.093,5.631.641.352Z" transform="translate(-847.256 -191.327)" fill="#fff"/><rect width="8.328" height="0.731" transform="translate(27.456 102.61) rotate(-61.22)" fill="#fff"/><rect width="8.328" height="0.731" transform="translate(44.903 70.849) rotate(-61.219)" fill="#fff"/><rect width="8.328" height="0.731" transform="translate(49.265 62.909) rotate(-61.22)" fill="#fff"/><rect width="8.328" height="0.731" transform="matrix(0.481, -0.876, 0.876, 0.481, 57.988, 47.028)" fill="#fff"/><path d="M769.881,486.222c.18.177.364.35.546.526l2.7-4.92-.641-.352Z" transform="translate(-749.746 -370.283)" fill="#fff"/><rect width="8.328" height="0.731" transform="matrix(0.481, -0.876, 0.876, 0.481, 23.094, 110.551)" fill="#fff"/><rect width="8.328" height="0.731" transform="translate(53.626 54.969) rotate(-61.219)" fill="#fff"/><rect width="8.328" height="0.731" transform="translate(31.818 94.67) rotate(-61.22)" fill="#fff"/><rect width="8.328" height="0.731" transform="translate(39.758 99.032) rotate(-61.22)" fill="#fff"/><rect width="8.328" height="0.731" transform="translate(31.034 114.912) rotate(-61.219)" fill="#fff"/><rect width="8.328" height="0.731" transform="translate(35.396 106.972) rotate(-61.219)" fill="#fff"/><path d="M952.621,200.472l-.634-.348-.008,0-4.009,7.3.641.352Z" transform="translate(-860.234 -195.731)" fill="#fff"/><rect width="8.328" height="0.731" transform="matrix(0.481, -0.876, 0.876, 0.481, 48.481, 83.151)" fill="#fff"/><rect width="8.328" height="0.731" transform="translate(61.567 59.33) rotate(-61.22)" fill="#fff"/><rect width="8.328" height="0.731" transform="translate(70.29 43.45) rotate(-61.219)" fill="#fff"/><rect width="8.328" height="0.731" transform="translate(52.843 75.211) rotate(-61.219)" fill="#fff"/><rect width="8.328" height="0.731" transform="matrix(0.481, -0.876, 0.876, 0.481, 74.652, 35.509)" fill="#fff"/><rect width="8.328" height="0.731" transform="translate(57.205 67.271) rotate(-61.22)" fill="#fff"/><rect width="8.328" height="0.731" transform="matrix(0.481, -0.876, 0.876, 0.481, 65.928, 51.39)" fill="#fff"/><rect width="8.328" height="0.731" transform="translate(44.12 91.091) rotate(-61.219)" fill="#fff"/><rect width="8.328" height="0.731" transform="matrix(0.481, -0.876, 0.876, 0.481, 79.013, 27.569)" fill="#fff"/><rect width="8.328" height="0.731" transform="matrix(0.481, -0.876, 0.876, 0.481, 83.375, 19.629)" fill="#fff"/><path d="M788.385,499.38c.2.147.393.3.592.441l3.573-6.5-.641-.352Z" transform="translate(-761.226 -377.412)" fill="#fff"/><rect width="8.328" height="0.731" transform="translate(91.315 23.991) rotate(-61.219)" fill="#fff"/><rect width="8.328" height="0.731" transform="translate(82.592 39.871) rotate(-61.22)" fill="#fff"/><rect width="8.328" height="0.731" transform="matrix(0.481, -0.876, 0.876, 0.481, 78.23, 47.811)" fill="#fff"/><rect width="8.328" height="0.731" transform="matrix(0.481, -0.876, 0.876, 0.481, 56.422, 87.513)" fill="#fff"/><rect width="8.328" height="0.731" transform="translate(52.06 95.453) rotate(-61.219)" fill="#fff"/><rect width="8.328" height="0.731" transform="matrix(0.481, -0.876, 0.876, 0.481, 38.975, 119.274)" fill="#fff"/><rect width="8.328" height="0.731" transform="translate(60.783 79.573) rotate(-61.22)" fill="#fff"/><rect width="8.328" height="0.731" transform="matrix(0.481, -0.876, 0.876, 0.481, 43.337, 111.334)" fill="#fff"/><rect width="8.328" height="0.731" transform="translate(73.869 55.752) rotate(-61.219)" fill="#fff"/><rect width="8.328" height="0.731" transform="matrix(0.481, -0.876, 0.876, 0.481, 95.677, 16.05)" fill="#fff"/><rect width="8.328" height="0.732" transform="matrix(0.481, -0.876, 0.876, 0.481, 65.145, 71.632)" fill="#fff"/><path d="M808.471,511.445c.117.065.232.133.35.2.1.053.194.1.291.155l3.84-6.99-.641-.352Z" transform="translate(-773.688 -384.541)" fill="#fff"/><rect width="8.328" height="0.731" transform="matrix(0.481, -0.876, 0.876, 0.481, 47.698, 103.393)" fill="#fff"/><rect width="8.328" height="0.731" transform="translate(69.507 63.692) rotate(-61.219)" fill="#fff"/><rect width="8.328" height="0.731" transform="matrix(0.481, -0.876, 0.876, 0.481, 86.954, 31.931)" fill="#fff"/><rect width="8.328" height="0.731" transform="translate(90.532 44.233) rotate(-61.219)" fill="#fff"/><rect width="8.328" height="0.731" transform="matrix(0.481, -0.876, 0.876, 0.481, 103.617, 20.412)" fill="#fff"/><rect width="8.328" height="0.731" transform="matrix(0.481, -0.876, 0.876, 0.481, 73.085, 75.994)" fill="#fff"/><rect width="8.328" height="0.731" transform="matrix(0.481, -0.876, 0.876, 0.481, 68.724, 83.934)" fill="#fff"/><rect width="8.328" height="0.731" transform="translate(77.447 68.054) rotate(-61.22)" fill="#fff"/><path d="M830.078,522.459c.23.09.46.175.69.262L834.3,516.3l-.641-.352Z" transform="translate(-787.093 -391.669)" fill="#fff"/><rect width="8.328" height="0.731" transform="matrix(0.481, -0.876, 0.876, 0.481, 81.809, 60.113)" fill="#fff"/><rect width="8.328" height="0.731" transform="matrix(0.481, -0.876, 0.876, 0.481, 64.362, 91.875)" fill="#fff"/><rect width="8.328" height="0.731" transform="translate(94.894 36.293) rotate(-61.22)" fill="#fff"/><rect width="8.328" height="0.731" transform="matrix(0.481, -0.876, 0.876, 0.481, 46.915, 123.636)" fill="#fff"/><rect width="8.328" height="0.731" transform="translate(60 99.815) rotate(-61.219)" fill="#fff"/><rect width="8.328" height="0.731" transform="matrix(0.481, -0.876, 0.876, 0.481, 51.277, 115.695)" fill="#fff"/><rect width="8.328" height="0.731" transform="translate(99.256 28.352) rotate(-61.219)" fill="#fff"/><rect width="8.328" height="0.731" transform="matrix(0.481, -0.876, 0.876, 0.481, 86.171, 52.173)" fill="#fff"/><rect width="8.328" height="0.731" transform="matrix(0.481, -0.876, 0.876, 0.481, 55.639, 107.755)" fill="#fff"/><rect width="8.328" height="0.731" transform="translate(81.026 80.356) rotate(-61.22)" fill="#fff"/><rect width="8.328" height="0.731" transform="translate(102.834 40.654) rotate(-61.219)" fill="#fff"/><rect width="8.328" height="0.731" transform="translate(59.217 120.057) rotate(-61.22)" fill="#fff"/><rect width="8.328" height="0.731" transform="matrix(0.481, -0.876, 0.876, 0.481, 107.196, 32.714)" fill="#fff"/><rect width="8.328" height="0.731" transform="matrix(0.481, -0.876, 0.876, 0.481, 76.664, 88.296)" fill="#fff"/><path d="M853.276,532.375c.245.06.49.122.736.179l2.617-4.764-.641-.352Z" transform="translate(-801.485 -398.798)" fill="#fff"/><rect width="8.328" height="0.731" transform="matrix(0.481, -0.876, 0.876, 0.481, 54.855, 127.997)" fill="#fff"/><rect width="8.328" height="0.731" transform="translate(72.302 96.236) rotate(-61.22)" fill="#fff"/><rect width="8.328" height="0.731" transform="translate(85.387 72.415) rotate(-61.219)" fill="#fff"/><rect width="8.328" height="0.731" transform="translate(67.941 104.177) rotate(-61.22)" fill="#fff"/><rect width="8.328" height="0.731" transform="translate(98.473 48.595) rotate(-61.219)" fill="#fff"/><rect width="8.328" height="0.731" transform="translate(63.579 112.117) rotate(-61.22)" fill="#fff"/><rect width="8.328" height="0.731" transform="translate(94.111 56.535) rotate(-61.219)" fill="#fff"/><rect width="8.328" height="0.731" transform="translate(89.749 64.475) rotate(-61.219)" fill="#fff"/><path d="M1014.468,239.008c-.18-.177-.364-.35-.546-.526l-3.2,5.822.641.352Z" transform="translate(-899.166 -219.53)" fill="#fff"/><rect width="8.328" height="0.731" transform="matrix(0.481, -0.876, 0.876, 0.481, 106.413, 52.956)" fill="#fff"/><rect width="8.328" height="0.731" transform="matrix(0.481, -0.876, 0.876, 0.481, 110.775, 45.016)" fill="#fff"/><path d="M1033.806,257.894q-.242-.318-.487-.633l-1.678,3.055.641.352Z" transform="translate(-912.143 -231.18)" fill="#fff"/><rect width="8.328" height="0.731" transform="translate(71.519 116.479) rotate(-61.219)" fill="#fff"/><rect width="8.328" height="0.731" transform="matrix(0.481, -0.876, 0.876, 0.481, 75.881, 108.538)" fill="#fff"/><rect width="8.328" height="0.731" transform="matrix(0.481, -0.876, 0.876, 0.481, 88.966, 84.717)" fill="#fff"/><path d="M878.2,541.1q.4.038.8.072l1.038-1.89-.641-.352Z" transform="translate(-816.946 -405.927)" fill="#fff"/><rect width="8.328" height="0.731" transform="matrix(0.481, -0.876, 0.876, 0.481, 97.689, 68.837)" fill="#fff"/><rect width="8.328" height="0.731" transform="matrix(0.481, -0.876, 0.876, 0.481, 67.157, 124.419)" fill="#fff"/><rect width="8.328" height="0.731" transform="translate(93.328 76.777) rotate(-61.219)" fill="#fff"/><rect width="8.328" height="0.731" transform="translate(115.136 37.076) rotate(-61.218)" fill="#fff"/><rect width="8.328" height="0.731" transform="translate(80.243 100.598) rotate(-61.219)" fill="#fff"/><rect width="8.328" height="0.731" transform="translate(62.796 132.359) rotate(-61.222)" fill="#fff"/><rect width="8.328" height="0.731" transform="matrix(0.481, -0.876, 0.876, 0.481, 84.604, 92.658)" fill="#fff"/><rect width="8.328" height="0.731" transform="matrix(0.481, -0.876, 0.876, 0.481, 102.051, 60.897)" fill="#fff"/><rect width="8.328" height="0.731" transform="translate(96.906 89.079) rotate(-61.22)" fill="#fff"/><rect width="8.328" height="0.731" transform="matrix(0.481, -0.876, 0.876, 0.481, 101.268, 81.139)" fill="#fff"/><rect width="8.328" height="0.731" transform="matrix(0.481, -0.876, 0.876, 0.481, 109.991, 65.258)" fill="#fff"/><rect width="8.328" height="0.731" transform="matrix(0.481, -0.876, 0.876, 0.481, 92.545, 97.019)" fill="#fff"/><rect width="8.328" height="0.731" transform="translate(105.63 73.199) rotate(-61.219)" fill="#fff"/><rect width="8.328" height="0.731" transform="translate(75.098 128.781) rotate(-61.219)" fill="#fff"/><rect width="8.328" height="0.731" transform="matrix(0.481, -0.876, 0.876, 0.481, 83.821, 112.9)" fill="#fff"/><path d="M905.137,535.449c.287-.016.575-.03.862-.05l3.047-5.548-.641-.352Z" transform="translate(-833.66 -400.078)" fill="#fff"/><rect width="8.328" height="0.731" transform="matrix(0.481, -0.876, 0.876, 0.481, 79.459, 120.84)" fill="#fff"/><path d="M1045.242,280.47c-.137-.253-.28-.5-.42-.754l-3.754,6.833.641.352Z" transform="translate(-917.992 -245.112)" fill="#fff"/><rect width="8.328" height="0.731" transform="translate(88.183 104.96) rotate(-61.22)" fill="#fff"/><rect width="8.328" height="0.731" transform="matrix(0.481, -0.876, 0.876, 0.481, 118.715, 49.378)" fill="#fff"/><rect width="8.328" height="0.731" transform="translate(114.353 57.318) rotate(-61.22)" fill="#fff"/><rect width="8.328" height="0.731" transform="translate(96.123 109.322) rotate(-61.219)" fill="#fff"/><rect width="8.328" height="0.731" transform="translate(104.847 93.441) rotate(-61.22)" fill="#fff"/><rect width="8.328" height="0.731" transform="translate(109.208 85.501) rotate(-61.22)" fill="#fff"/><rect width="8.328" height="0.731" transform="translate(100.485 101.381) rotate(-61.22)" fill="#fff"/><path d="M934.641,541.006l.027-.006-.018-.01Z" transform="translate(-851.964 -407.207)" fill="#fff"/><rect width="8.328" height="0.731" transform="translate(126.655 53.739) rotate(-61.221)" fill="#fff"/><rect width="8.328" height="0.731" transform="matrix(0.481, -0.876, 0.876, 0.481, 122.293, 61.68)" fill="#fff"/><rect width="8.328" height="0.731" transform="matrix(0.481, -0.876, 0.876, 0.481, 87.4, 125.202)" fill="#fff"/><rect width="8.328" height="0.731" transform="translate(113.57 77.56) rotate(-61.219)" fill="#fff"/><rect width="8.328" height="0.731" transform="translate(91.761 117.262) rotate(-61.219)" fill="#fff"/><rect width="8.328" height="0.731" transform="matrix(0.481, -0.876, 0.876, 0.481, 117.932, 69.62)" fill="#fff"/><path d="M1062.807,307.761c-.106-.309-.217-.617-.327-.924l-.494.9.641.352Z" transform="translate(-930.969 -261.937)" fill="#fff"/><rect width="8.328" height="0.731" transform="translate(83.038 133.142) rotate(-61.215)" fill="#fff"/><rect width="8.328" height="0.731" transform="translate(130.234 66.041) rotate(-61.215)" fill="#fff"/><path d="M968,517.944l.03.016q.533-.237,1.062-.485L972.65,511l-.641-.352Z" transform="translate(-872.66 -388.381)" fill="#fff"/><rect width="8.328" height="0.731" transform="translate(99.702 121.623) rotate(-61.218)" fill="#fff"/><rect width="8.328" height="0.731" transform="translate(104.063 113.683) rotate(-61.22)" fill="#fff"/><rect width="8.328" height="0.731" transform="matrix(0.481, -0.876, 0.876, 0.481, 108.425, 105.743)" fill="#fff"/><rect width="8.328" height="0.731" transform="matrix(0.481, -0.876, 0.876, 0.481, 117.149, 89.862)" fill="#fff"/><rect width="8.328" height="0.731" transform="translate(112.787 97.803) rotate(-61.219)" fill="#fff"/><path d="M1071.568,340.873l-.155.282.216.118C1071.61,341.139,1071.588,341.007,1071.568,340.873Z" transform="translate(-936.818 -283.053)" fill="#fff"/><rect width="8.328" height="0.732" transform="translate(125.872 73.982) rotate(-61.221)" fill="#fff"/><rect width="8.328" height="0.731" transform="translate(121.51 81.922) rotate(-61.219)" fill="#fff"/><path d="M1070.2,391.494c.108-.685.208-1.371.3-2.057l-1.148,2.089.641.352Z" transform="translate(-935.538 -313.183)" fill="#fff"/><rect width="8.328" height="0.731" transform="translate(129.451 86.284) rotate(-61.223)" fill="#fff"/><rect width="8.328" height="0.731" transform="translate(112.004 118.045) rotate(-61.22)" fill="#fff"/><path d="M1009.226,502.424q.566-.469,1.122-.953l-.46-.252Z" transform="translate(-898.237 -382.532)" fill="#fff"/><rect width="8.328" height="0.731" transform="translate(116.365 110.105) rotate(-61.219)" fill="#fff"/><rect width="8.328" height="0.731" transform="translate(120.727 102.164) rotate(-61.218)" fill="#fff"/><rect width="8.328" height="0.731" transform="translate(125.089 94.224) rotate(-61.217)" fill="#fff"/><path d="M788.988,486l-.641-.352-7.3-4.01-.641-.352-7.3-4.009-.641-.352-7.3-4.01-.641-.352-7.3-4.01-.641-.352-7.3-4.01-.641-.352-4.965-2.727q.4.645.813,1.281l3.8,2.087.641.352,7.3,4.01.641.352,7.3,4.009.641.352,7.3,4.01.641.352,7.3,4.009.641.352,7.3,4.01.641.352,7.3,4.01.641.352,3.864,2.122q.759.009,1.517,0l-5.029-2.762-.641-.352Z" transform="translate(-733.491 -357.649)" fill="#fff"/><path d="M798.473,463.98l-.641-.352-7.3-4.01-.641-.352-7.3-4.009-.641-.352-7.3-4.01-.641-.352-7.3-4.01-.641-.352-7.3-4.009-.641-.352-7.3-4.01-.641-.352-7.3-4.009-.641-.352-7.3-4.01-.641-.352-7.3-4.01-.641-.352-.028-.015c.117.346.24.69.362,1.034l7.254,3.984.641.352,7.3,4.01.641.352,7.3,4.009.641.352,7.3,4.01.641.352,7.3,4.009.641.352,7.3,4.009.641.352,7.3,4.01.641.352,7.3,4.009.641.352,7.3,4.01.641.352,7.3,4.01.018.01c.356-.081.712-.162,1.067-.249l-.091-.05-.641-.352Z" transform="translate(-722.735 -334.847)" fill="#fff"/><path d="M806.075,440.926l-.641-.352-7.3-4.009-.641-.352-7.3-4.01-.641-.352-7.3-4.01-.641-.352-7.3-4.009-.641-.352-7.3-4.01-.641-.352-7.3-4.01-.641-.352-7.3-4.009-.641-.352-7.3-4.01-.641-.352-7.3-4.009-.641-.352-7.3-4.01-.641-.352-7.266-3.991c.045.3.09.608.139.911l6.774,3.721.641.352,7.3,4.01.641.352,7.3,4.009.641.352,7.3,4.01.641.352,7.3,4.01.641.352,7.3,4.009.641.352,7.3,4.01.641.352,7.3,4.009.641.352,7.3,4.01.641.352,7.3,4.01.641.352,7.3,4.009.641.352,6.838,3.756c.282-.121.563-.246.844-.371l-.03-.016Z" transform="translate(-718.034 -315.372)" fill="#fff"/><path d="M809.241,415.441l-.641-.352-7.3-4.01-.641-.352-7.3-4.01-.641-.352-7.3-4.01L784.78,402l-7.3-4.01-.641-.352-7.3-4.009-.641-.352-7.3-4.01-.641-.352-7.3-4.01-.641-.352-7.3-4.01-.641-.352-7.3-4.01-.641-.352-7.3-4.009-.641-.352-7.3-4.01-.641-.352-4.412-2.424c0,.277-.006.555-.006.831l4.066,2.234.641.352,7.3,4.01.641.352,7.3,4.009.641.352,7.3,4.01.641.352,7.3,4.01.641.352,7.3,4.009.641.352,7.3,4.01.641.352,7.3,4.009.641.352,7.3,4.01.641.352,7.3,4.01.641.352,7.3,4.009.641.352,7.3,4.01.641.352,7.3,4.009.641.352,4.13,2.268q.351-.223.7-.451l-4.476-2.459-.641-.352Z" transform="translate(-716.839 -297.827)" fill="#fff"/><path d="M822.74,395.73l-.641-.352-7.3-4.01-.641-.352-7.3-4.009-.641-.352-7.3-4.01-.641-.352-7.3-4.009-.641-.352-7.3-4.01-.641-.352-7.3-4.01-.641-.352-7.3-4.009-.641-.352-7.3-4.01-.641-.352-7.3-4.009-.641-.352-7.3-4.01-.641-.352-7.3-4.01-.641-.352-7.3-4.009-.641-.352-7.3-4.01-.628-.345c-.041.256-.083.512-.121.768l.4.217,7.3,4.01.641.352,7.3,4.009.641.352,7.3,4.01.641.352,7.3,4.01.641.352,7.3,4.009.641.352,7.3,4.01.641.352,7.3,4.009.641.352,7.3,4.009.641.352,7.3,4.01.641.352,7.3,4.009.641.352,7.3,4.01.641.352,7.3,4.01.641.352,7.3,4.009.641.352,7.3,4.01.46.252c.2-.17.389-.342.583-.514l-.05-.027-.641-.352Z" transform="translate(-718.036 -281.695)" fill="#fff"/><path d="M734.165,320.762l.641.352,7.3,4.01.641.352,7.3,4.01.641.352,7.3,4.009.641.352,7.3,4.01.641.352,7.3,4.01.641.352,7.3,4.01.641.352,7.3,4.01.641.352,7.3,4.009.641.352,7.3,4.01.641.352,7.3,4.01.641.352,7.3,4.009.641.352,7.3,4.01.641.352,7.3,4.01.641.352,2.137,1.174c.164-.188.33-.374.492-.564l-2.276-1.25-.641-.352-7.3-4.009-.641-.352-7.3-4.01-.641-.352-7.3-4.01-.641-.352-7.3-4.01-.641-.352-7.3-4.01-.641-.352L790.74,351l-.641-.352-7.3-4.01-.641-.352-7.3-4.01-.641-.352-7.3-4.009-.641-.352-7.3-4.01-.641-.352-7.3-4.009-.641-.352-7.3-4.01-.641-.352-7.3-4.01-.641-.352-7.3-4.009-.641-.352-2.213-1.216c-.074.239-.142.479-.213.718l2.074,1.139.641.352Z" transform="translate(-721.375 -266.718)" fill="#fff"/><path d="M743.739,298.876l.641.352,7.3,4.01.641.352,7.3,4.009.641.352,7.3,4.01.641.352,7.3,4.01.641.352,7.3,4.009.641.352,7.3,4.01.641.352,7.3,4.009.641.352,7.3,4.01.641.352,7.3,4.01.641.352,7.3,4.009.641.352,7.3,4.01.641.352,7.3,4.009.641.352,7.3,4.01.641.352,3.31,1.818c.134-.2.265-.41.4-.616l-3.354-1.843-.641-.352-7.3-4.01-.641-.352-7.3-4.009-.641-.352-7.3-4.01-.641-.352-7.3-4.01-.641-.352-7.3-4.01-.641-.352-7.3-4.01-.641-.352-7.3-4.009-.642-.352-7.3-4.01-.641-.352-7.3-4.01-.641-.352-7.3-4.01-.641-.352-7.3-4.01-.641-.352-7.3-4.009-.641-.352-7.3-4.01-.641-.352-7.3-4.01-.641-.352-3.291-1.808c-.1.222-.207.443-.307.666l3.246,1.783.641.352Z" transform="translate(-726.588 -252.773)" fill="#fff"/><path d="M755.065,277.945l.641.352,7.3,4.009.641.352,7.3,4.01.641.352,7.3,4.01.641.352,7.3,4.009.641.352,7.3,4.01.641.352,7.3,4.01.641.352,7.3,4.009.641.352,7.3,4.01.641.352,7.3,4.009.641.352,7.3,4.01.641.352,7.3,4.01.641.352,7.3,4.009.641.352,7.3,4.01.641.352,3.41,1.873c.106-.221.208-.442.311-.664l-3.37-1.851-.641-.352-7.3-4.01-.641-.352-7.3-4.01-.641-.352-7.3-4.009-.641-.352-7.3-4.01-.641-.352-7.3-4.009-.641-.352-7.3-4.01-.641-.352-7.3-4.01-.641-.352-7.3-4.009-.641-.352-7.3-4.01-.641-.352-7.3-4.009-.641-.352-7.3-4.01-.641-.352-7.3-4.01-.641-.352-7.3-4.009-.641-.352-7.3-4.01-.641-.352-3.306-1.816c-.131.206-.263.411-.393.619l3.347,1.838.641.352Z" transform="translate(-733.552 -239.782)" fill="#fff"/><path d="M768.129,257.966l.641.352,7.3,4.01.641.352,7.3,4.01.641.352,7.3,4.009.641.352,7.3,4.01.641.352,7.3,4.01.641.352,7.3,4.01.641.352,7.3,4.01.641.352,7.3,4.009.641.352,7.3,4.01.641.352,7.3,4.01.641.352,7.3,4.009.641.352,7.3,4.01.641.352,7.3,4.01.641.352,2.448,1.345c.077-.236.155-.472.229-.709l-2.325-1.277-.641-.352-7.3-4.009-.641-.352-7.3-4.01-.641-.352-7.3-4.01-.641-.352-7.3-4.01-.641-.352-7.3-4.01-.641-.352-7.3-4.009-.641-.352-7.3-4.01-.641-.352-7.3-4.01-.641-.352-7.3-4.009-.641-.352-7.3-4.01-.641-.352L785,266.4l-.641-.352-7.3-4.01-.641-.352-7.3-4.01-.641-.352-7.3-4.009-.641-.352-2.261-1.242c-.16.189-.317.382-.475.574l2.384,1.31.641.352Z" transform="translate(-742.254 -227.743)" fill="#fff"/><path d="M783.029,239.013l.641.352,7.3,4.01.641.352,7.3,4.009.641.352,7.3,4.01.641.352,7.3,4.01.641.352,7.3,4.009.641.352,7.3,4.01.641.352,7.3,4.009.641.352,7.3,4.01.641.352,7.3,4.01.641.352,7.3,4.009.641.352,7.3,4.01.641.352,7.3,4.009.641.352,7.3,4.01.641.352.361.2c.045-.255.084-.51.126-.765l-.136-.074-.641-.352-7.3-4.01-.642-.352-7.3-4.009-.641-.352-7.3-4.01-.641-.352-7.3-4.01-.641-.352-7.3-4.01-.641-.352-7.3-4.01-.641-.352-7.3-4.009-.641-.352-7.3-4.01-.641-.352-7.3-4.01-.641-.352-7.3-4.01-.641-.352-7.3-4.01-.641-.352-7.3-4.009-.641-.352-7.3-4.01-.641-.352-7.3-4.01-.641-.352-.072-.039c-.193.172-.387.342-.578.517l.3.164.641.352Z" transform="translate(-752.793 -216.731)" fill="#fff"/><path d="M807.95,225.575l.641.352,7.3,4.01.641.352,7.3,4.01.641.352,7.3,4.009.641.352,7.3,4.01.641.352,7.3,4.01.641.352,7.3,4.009.641.352,7.3,4.01.641.352,7.3,4.009.641.352,7.3,4.01.641.352,7.3,4.01.641.352,7.3,4.009.641.352,4.942,2.715c.008-.276.01-.551.014-.827l-4.6-2.529-.641-.352-7.3-4.009-.641-.352-7.3-4.009-.641-.352-7.3-4.01-.641-.352-7.3-4.009-.641-.352-7.3-4.01-.641-.352-7.3-4.01-.641-.352-7.3-4.009-.641-.352-7.3-4.01-.641-.352-7.3-4.009-.641-.352-7.3-4.01-.641-.352-7.3-4.01-.641-.352-7.3-4.009-.641-.352-4.54-2.494c-.23.151-.462.3-.69.455l4.879,2.68.641.352Z" transform="translate(-765.412 -206.871)" fill="#fff"/><path d="M827.443,209.172l.641.352,7.3,4.01.641.352,7.3,4.009.641.352,7.3,4.01.641.352,7.3,4.01.641.352,7.3,4.01.641.352,7.3,4.01.641.352,7.3,4.009.641.352,7.3,4.01.641.352,7.3,4.01.641.352,7.3,4.009.641.352,7.3,4.01.641.352.046.025c-.039-.3-.076-.6-.119-.9l-.216-.118-7.3-4.01-.641-.352-7.3-4.01-.641-.352-7.3-4.01-.641-.352-7.3-4.01-.641-.352-7.3-4.009-.641-.352-7.3-4.01-.641-.352-7.3-4.01-.641-.352-7.3-4.01-.641-.352-7.3-4.01-.641-.352-7.3-4.009-.641-.352-7.3-4.01-.641-.352-7.3-4.01-.152-.084c-.276.125-.549.254-.823.383l.624.342Z" transform="translate(-780.543 -198.408)" fill="#fff"/><path d="M858.23,199.047l.641.352,7.3,4.01.641.352,7.3,4.01.641.352,7.3,4.009.641.352,7.3,4.01.641.352,7.3,4.009.641.352,7.3,4.01.641.352,7.3,4.01.641.352,7.3,4.009.641.352,7.3,4.01.641.352,1.037.57c-.107-.34-.221-.679-.333-1.018l-.352-.193-.641-.352-7.3-4.01-.641-.352-7.3-4.01-.641-.352-7.3-4.01-.641-.352-7.3-4.01-.641-.352-7.3-4.009-.641-.352-7.3-4.01-.641-.352-7.3-4.01-.641-.352-7.3-4.01-.641-.352-7.3-4.01-.641-.352-7.3-4.009-.641-.352-.288-.158c-.346.087-.693.172-1.038.265l.974.535.641.352Z" transform="translate(-799.028 -191.862)" fill="#fff"/><path d="M902.553,196.523l.641.352,7.3,4.01.641.352,7.3,4.01.641.352,7.3,4.01.641.352,7.3,4.01.641.352,7.3,4.009.641.352,6.546,3.6q-.36-.621-.732-1.237l-5.461-3-.641-.352-7.3-4.009-.641-.352-7.3-4.01-.641-.352-7.3-4.01-.641-.352-7.3-4.009-.641-.352-7.3-4.01-.641-.352-7.3-4.009-.641-.352-5.4-2.965c-.479.009-.958.026-1.436.045l6.482,3.561.641.352Z" transform="translate(-823.109 -188.555)" fill="#fff"/><path d="M966.485,204.486l.641.352,7.3,4.01.641.352.057.031a68.064,68.064,0,0,0-16.571-9.1l.634.348Z" transform="translate(-866.798 -195.735)" fill="#fff"/></g><g transform="translate(2871.189 -1247.964)"><g transform="translate(0 0)"><rect width="12.721" height="69.047" rx="4.47" transform="translate(33.174)" fill="#2e6c9e"/><rect width="16.881" height="69.047" rx="4.47" transform="translate(47.178)" fill="#2e6c9e"/><rect width="16.881" height="69.047" rx="4.47" fill="#2e6c9e"/><rect width="14.494" height="69.047" rx="4.47" transform="translate(18.136)" fill="#2e6c9e"/><rect width="16.881" height="12.232" transform="translate(0 12.231)" fill="#4c98c4"/><rect width="14.494" height="5.79" transform="translate(18.136 51.544)" fill="#4c98c4"/><rect width="14.494" height="9.525" transform="translate(18.136 37.398)" fill="#4c98c4"/><rect width="16.881" height="15.52" transform="translate(47.178 19.806)" fill="#c7dfed"/><path d="M5.283,0h0a5.283,5.283,0,0,1,5.283,5.283v0a5.283,5.283,0,0,1-5.283,5.283h0A5.283,5.283,0,0,1,0,5.283v0A5.283,5.283,0,0,1,5.283,0Z" transform="matrix(0.977, 0.213, -0.213, 0.977, 47.92, 2.408)" fill="#4c98c4"/></g></g><g transform="translate(2614.091 -1286.496)"><path d="M627.444,623.29c-5.144,6.484-10.8,9.534-16.588,12.57H586.217c-28.114-14.256-45.086-75.121-36.992-108.5C604,540.271,651.883,592.824,627.444,623.29Z" transform="translate(-546.531 -526.682)" fill="#f7f6f1"/><path d="M548.287,525.585a.685.685,0,0,0-.822.5c-7.969,32.879,8.245,93.079,36.2,108.656h3c-28.509-12.926-45.756-74.288-38.031-107.674l.029.007c22.9,35.335,56.026,83.142,60.644,107.126-.106.049-.628.3-1.187.541H611.3C665.536,607.333,611.2,540.418,548.287,525.585Z" transform="translate(-545.436 -525.567)" fill="#97c4de"/><g transform="translate(1.702 1.352)"><path d="M586.75,554.855a.683.683,0,0,0,.672-.561l2.007-11.122a.683.683,0,0,0-1.345-.241l-2.007,11.122A.682.682,0,0,0,586.75,554.855Z" transform="translate(-572.345 -537.343)" fill="#f7f6f1"/><path d="M631.229,602.029a.684.684,0,0,0,.9-.346l10.355-23.267a.683.683,0,0,0-1.249-.553L630.882,601.13A.681.681,0,0,0,631.229,602.029Z" transform="translate(-600.112 -559.112)" fill="#f7f6f1"/><path d="M708.013,656.77a.684.684,0,0,0-.961.1L684.8,684.467a.682.682,0,0,0,1.065.854l22.255-27.594A.68.68,0,0,0,708.013,656.77Z" transform="translate(-633.505 -608.224)" fill="#f7f6f1"/><path d="M588.44,584.819c-15.539-25.617-33.708-50.685-34.081-51.058-1.014-1.393-2.145-2.932-3.208-4.357a.682.682,0,0,0-1.1.813c.078.106.763,1.026.912,1.229,9.578,12.951,23.859,33.56,36.3,54.079,7.127,11.75,22.328,37.74,24.237,51.431h1.38C610.844,622.645,595.93,597.164,588.44,584.819Z" transform="translate(-549.919 -529.128)" fill="#f7f6f1"/></g><g transform="translate(0 0)"><path d="M570.377,600.045a.682.682,0,0,0-.5-.825l-18.964-4.634a.682.682,0,1,0-.325,1.324l18.964,4.635A.684.684,0,0,0,570.377,600.045Z" transform="translate(-548.308 -568.374)" fill="#97c4de"/><path d="M567.606,684.33l32.2,2.876c.02,0,.041,0,.062,0a.681.681,0,0,0,.06-1.36l-32.2-2.876a.682.682,0,1,0-.122,1.358Z" transform="translate(-558.804 -623.22)" fill="#97c4de"/><path d="M647.516,774.037l-30.307,2.026a.681.681,0,0,0,.045,1.362l.046,0,30.307-2.026a.682.682,0,1,0-.092-1.36Z" transform="translate(-589.568 -679.718)" fill="#97c4de"/><path d="M548.287,525.585a.685.685,0,0,0-.822.5c-7.969,32.879,8.245,93.079,36.2,108.656h3c-28.509-12.926-45.756-74.288-38.031-107.674l.029.007C610.212,541.993,664.4,607.915,609.311,634.2c-.106.049-.609.292-1.187.541H611.3C665.536,607.333,611.2,540.418,548.287,525.585Z" transform="translate(-545.436 -525.567)" fill="#97c4de"/></g></g><g transform="translate(2702.129 -1297.177)"><path d="M833.04,510.951v105.2H788.876c-26.232-23.2-4.745-85.715,35.216-118.722A80.283,80.283,0,0,1,833.04,510.951Z" transform="translate(-777.361 -497.43)" fill="#2e6c9e"/><path d="M834.628,525.325v-1.939l-12.307,10.379c4.222-37.058,4.023-35.085,3.971-35.281a.741.741,0,0,0-1.453.1l-2.443,21.441L814.1,508.85a.741.741,0,0,0-1.19.883l9.235,12.445c0,.007-3.305,29.009-3.305,29.009L796.268,532.45a.741.741,0,0,0-.946,1.14l23.323,19.358c-.02.175-4.311,37.826-4.329,37.99l-33.342-15.417a.741.741,0,1,0-.622,1.345l33.787,15.623c-.536,4.7-2.214,19.431-2.732,23.972H812.9l.5-4.382,21.231-8.811v-1.6l-21.039,8.73c2.664-23.381,1.5-13.163,4.112-36.083l16.927-10.369V562.2l-16.715,10.24,4.163-36.535Z" transform="translate(-778.949 -497.739)" fill="#f7f6f1"/></g><g transform="translate(2604.663 -1279.153)"><path d="M570.429,627.71a16.977,16.977,0,0,0,4.809-1.356,18.457,18.457,0,0,0,9.249-9.384c3.315-7.178,1.9-15.45-.536-18.189-1.671,5.2-15.139,21.924-16.562,23.455-1.378,1.531-2.716,2.713-3.311,3.481-.531-1.239-4.256-10.179-9.738-22.051,4.073.424,13.209-3.771,14.855-14.713,1.033-6.845-1.327-11.248.062-15.552-6.292,1.053-10.954,14.759-12.847,20.867-1.341,4.368-2.361,6.725-2.724,7.989-2.939-6.327-5.957-12.571-8.949-18.473,2.538-.5,11.213-5.138,11.722-16.261.216-5.018-1.423-9.477-3-11.245-3.117,5.814-9.929,11.318-10.1,22.787-.008.388-.009,1.25.054,2.136-.412-.8-5.8-11.17-6.18-11.415.69-1.864.971-8.591-2.528-14.193-3.214-5.257-9.538-9.3-14.111-10.681a50.7,50.7,0,0,0,2.218,10.871c3.233,9.881,11.209,14.183,13.558,14.515a.6.6,0,0,0,.076.238c3.445,6.3,6.807,12.8,10.035,19.334a56.022,56.022,0,0,0-13-7.16c-8.1-3.284-8.068-4.039-11.773-6.018a16.454,16.454,0,0,0,1.234,8.7c2.21,4.968,7.56,8.949,14.505,9.237,5.011.2,8.877-1.553,10.071-2.648,3.608,7.369,7.034,14.739,10.2,21.844a48.941,48.941,0,0,0-7.687-2.441c-5.6-1.3-9.773-.959-21.442.443,2.875,5.309,12.024,11.014,21.49,8.6,4.534-1.158,7.439-3.713,8.285-5.143,3.34,7.551,6.374,14.778,9,21.355-2.6-1.6-10.027-3.773-17.783.394a24.323,24.323,0,0,0-8.153,7.37h16.344c4.787-2.217,9.012-4.833,10.22-6.185q1.27,3.209,2.4,6.185h1.2c-2.029-5.342-4.381-11.208-6.948-17.336A11.98,11.98,0,0,0,570.429,627.71Z" transform="translate(-520.598 -544.911)" fill="#6da6c7"/><path d="M679.651,760.242c-11.287,1.72-18.874,9.961-20.69,17.529h10.481c6.178-5.377,6.551-6.089,17.335-17.691A23.916,23.916,0,0,0,679.651,760.242Z" transform="translate(-606.439 -678.283)" fill="#6da6c7"/></g><g transform="translate(2577.599 -1232.422)"><path d="M523.375,712.915c8.568-11.954,1.1-27.885-5.308-28.676.639,3.023.2,7.918-.175,18.057-.071,5.462-.064,7.067-.251,9.454-.153,2.41-.414,3.923-.393,4.735-1.438-.719-9.192-4.385-19.315-10.4,1.42-.877,4.453-4.042,5.63-9.541,2.132-9.957-3.783-16.138-5.29-19.348a6.873,6.873,0,0,1-.743-2.917c-4.505,4.028-3.927,15.077-2.817,21.063.415,2.293.73,3.461,1.227,6.2.287,1.544.525,2.939.786,3.823-8.972-5.392-15.162-9.875-15.64-10.194,1.574-1.35,5.1-6.848,5.13-13.258.056-6.878-3.579-12.343-5.974-13.431-1.447,5.582-5.011,11.861-3.368,19.664a20.8,20.8,0,0,0,2,5.444q-4.7-3.4-9.165-6.969a.572.572,0,0,0-.235-.117,14.081,14.081,0,0,0-.978-4.161,18.952,18.952,0,0,0-9.412-10.688,42.106,42.106,0,0,0-9.78-3.637c.369,4.881,2.82,11.094,6.881,14.893,4.641,4.265,10.807,4.988,12.682,4.419.123.206,7.308,5.967,16.347,12.038a91.969,91.969,0,0,0-14.381.139c-7.461.567-8.049-.109-13.229-.843,4.529,14.342,21.06,14.4,28.365,3.633a9.073,9.073,0,0,0,.932-1.805c6.11,3.953,11.039,7.074,18.91,11.361a65.035,65.035,0,0,0-7.26,2.831,43.467,43.467,0,0,0-10.363,6.851h15.62c2.571-3.505,3.5-7.28,3.35-8.953,6.054,3.255,12.209,6.253,18.38,8.953h2.818q-4.975-2.112-9.93-4.484A12.29,12.29,0,0,0,523.375,712.915Z" transform="translate(-449.302 -668.019)" fill="#f7a26d"/><path d="M670.379,758.773h6.67c0-.093.008-.187.013-.283,1.345-23.711.459-16.916,1.239-30.449C672.715,733.15,664.689,747.743,670.379,758.773Z" transform="translate(-585.249 -705.257)" fill="#f7a26d"/></g><g transform="translate(2828.307 -1334.895)"><path d="M1148.157,555.855h-38.4V440.836a177.925,177.925,0,0,1,45.792-40.4C1180.425,441.147,1182.794,531.3,1148.157,555.855Z" transform="translate(-1109.758 -399.539)" fill="#f7f6f1"/><path d="M1156.318,398.5a.9.9,0,0,0-1.234-.3,178.591,178.591,0,0,0-45.326,39.729V554.384h12.334c-1.379-34.134,19.4-103.132,33.12-154.158l.032-.02c24.478,41.259,26.373,131.19-8.637,154.178h3.065C1183.825,528.442,1181.08,439.136,1156.318,398.5Z" transform="translate(-1109.758 -398.068)" fill="#97c4de"/><g transform="translate(0 1.573)"><path d="M1191,450.06a.9.9,0,0,0,1.589-.846l-7.013-13.172a.9.9,0,1,0-1.589.846Z" transform="translate(-1155.743 -422.904)" fill="#f7f6f1"/><path d="M1137.666,533.458a.9.9,0,0,0,.671-1.5l-22.387-25.074a.9.9,0,0,0-1.343,1.2C1138.54,534.889,1137.069,533.458,1137.666,533.458Z" transform="translate(-1112.624 -466.965)" fill="#f7f6f1"/><path d="M1123.078,695.355a.9.9,0,0,0,.5-1.652l-13.815-9.1v2.154C1123.6,695.878,1122.692,695.355,1123.078,695.355Z" transform="translate(-1109.758 -577.411)" fill="#f7f6f1"/><path d="M1175.084,402.262a.9.9,0,0,0-1.142.563c-11.586,33.8-36.4,118.372-34.572,154.131h1.8c-1.862-35.4,22.853-119.526,34.472-153.552A.9.9,0,0,0,1175.084,402.262Z" transform="translate(-1128.07 -402.213)" fill="#f7f6f1"/></g><g transform="translate(0 0)"><path d="M1200.414,499.675l21.9-13.472a.9.9,0,1,0-.943-1.533l-21.9,13.471a.9.9,0,1,0,.943,1.534Z" transform="translate(-1165.15 -451.714)" fill="#97c4de"/><path d="M1168.867,620.888c.273,0-2.134.98,39.564-16.67a.9.9,0,1,0-.7-1.658l-39.214,16.6A.9.9,0,0,0,1168.867,620.888Z" transform="translate(-1145.872 -524.891)" fill="#97c4de"/><path d="M1186.4,744.352a.9.9,0,0,0-1.091-.656l-38.817,9.671a.9.9,0,0,0,.435,1.747l38.817-9.671A.9.9,0,0,0,1186.4,744.352Z" transform="translate(-1132.13 -612.48)" fill="#97c4de"/><path d="M1156.318,398.5a.9.9,0,0,0-1.234-.3,178.591,178.591,0,0,0-45.326,39.729v2.906a179.257,179.257,0,0,1,45.452-40.605l.034-.021c24.478,41.259,26.373,131.19-8.637,154.178h3.065C1183.825,528.442,1181.08,439.136,1156.318,398.5Z" transform="translate(-1109.758 -398.068)" fill="#97c4de"/></g></g><path d="M1164.623,535.532c4.733-2.473,7.964-6.356,8.751-8.749-7.109.231-17.18-3.495-28.282,4.03.36-.561,7.183-11.268,7.211-11.764,2.082-.356,8.424-3.681,11.717-9.885,3.127-5.757,3.481-13.731,2.315-18.674a53.882,53.882,0,0,0-8.824,7.83c-7.371,8.236-7.083,17.866-6.138,20.206l0,.013c-.1.359-4.985,8.247-12.621,19.637a59.789,59.789,0,0,0-.343-15.7c-1.292-9.206-.579-9.576-.731-14.04a17.494,17.494,0,0,0-7.35,5.769c-3.4,4.679-4.209,11.723-.777,18.268,2.462,4.681,6.1,7.3,7.759,7.844-4.238,6.281-9.219,13.481-14.635,21a52.351,52.351,0,0,0-1.845-8.342c-1.787-5.84-4.322-9.5-11.826-19.5-3.355,5.472-3.733,16.93,3.534,24.354,3.467,3.542,7.349,4.859,9.125,4.885-4.7,6.5-9.718,13.2-14.843,19.718.119-3.2-1.814-11.268-9.83-16.219A25.7,25.7,0,0,0,1085,562.59v7.09c1.114.991,2.281,2.042,3.44,3.116,5.764,5.331,14.589,10.478,17.308,11.006-4.246,5.364-8.559,10.585-12.831,15.447h1.588q1-1.154,2.057-2.393a58.857,58.857,0,0,0,5.64,2.393h25.679c-8.6-8.7-20.934-10.08-28.1-6.238,4.434-5.363,9.335-11.569,14.4-18.239a12.732,12.732,0,0,0,2.485,5.669,18.05,18.05,0,0,0,3.809,3.7,19.625,19.625,0,0,0,13.561,3.514c8.371-.772,15.231-6.478,16.454-10.179-5.76,1.252-28.4-2.295-30.405-2.752-2.142-.453-3.943-1.055-4.967-1.194,4.99-6.6,10.121-13.62,15.109-20.7,1.78,3.975,10.5,10.146,21.451,5.835,6.849-2.7,9.644-7.211,14.346-8.225-4.32-5.23-19.416-2.221-26.045-.712-4.729,1.09-7.442,1.408-8.8,1.746,4.256-6.072,8.393-12.172,12.232-18.072C1145.228,535.477,1154.117,540.987,1164.623,535.532Z" transform="translate(1733.908 -1790.302)" fill="#f7a26d"/><path d="M1259.046,697.941a19.666,19.666,0,0,0-12.976-2.862c-5.025.9-8.513,4.524-9.065,6.011-.186-.022-7.412,1.785-15.776,4.644a74.48,74.48,0,0,0,6.961-9.344c3.291-5.089,4.015-5.137,7.028-8.117-11.468-4.108-19.607,6.523-16.245,16.51a7.394,7.394,0,0,0,.707,1.487c-5.556,1.949-11.117,4.166-16.593,6.623a52.4,52.4,0,0,0,1.732-6.067c1.094-4.9.748-8,.323-17.349a15.249,15.249,0,0,0-6.418,6.789c-4.052,8.271,1.056,15.774,3.23,17.139-5.208,2.374-10.332,4.965-15.295,7.751a14.383,14.383,0,0,0,.731-5.786c-.538-9.494-9-15.842-15.77-15.905,5.511,10.864,6.419,12.872,8.722,16.068.5.726,3.742,5.175,5.214,6.246-5.186,2.956-10.188,6.124-14.914,9.48h1.572q2.134-1.491,4.356-2.94c.553.62,1.964,1.724,3.392,2.94h11.289c-3.15-3.157-7.471-5.293-11.829-4.762,4.5-2.817,9.234-5.5,14.129-8.016a9.963,9.963,0,0,0,.241,5.219,16.615,16.615,0,0,0,4.87,7.559h11.8c-1.786-1.441-4.061-3.37-7.134-5.89-3.487-2.723-4.526-3.5-5.973-4.8-1.478-1.279-2.327-2.189-2.86-2.574,5.236-2.658,10.653-5.123,16.17-7.359-.13,1.346.424,4.852,3.393,8.306,5.376,6.255,12.26,5.47,15.069,6.071a5.567,5.567,0,0,1,2.245.951c-.389-4.879-7.8-9.922-12.2-12.14-1.682-.856-2.59-1.226-4.6-2.246-1.136-.572-2.153-1.1-2.85-1.367,4.694-1.872,9.457-3.577,14.239-5.089.1,1.678,1.917,6.644,6.035,9.8,4.407,3.407,9.713,3.741,11.588,2.73-2.89-3.669-5.193-9.044-11.03-11.809a16.827,16.827,0,0,0-4.489-1.378q4.491-1.365,8.984-2.495a.473.473,0,0,0,.189-.1,11.392,11.392,0,0,0,3.164,1.41,15.351,15.351,0,0,0,11.5-.832,34.116,34.116,0,0,0,7.138-4.524Z" transform="translate(1680.775 -1912.445)" fill="#6da6c7"/><path d="M531.957,73.881a9.432,9.432,0,0,0-8.209,4.781,13.681,13.681,0,0,0-13.024-9.5c-.222,0-.442.006-.661.017a14.627,14.627,0,1,0-28.532,6.263,12.223,12.223,0,0,0-7.674,0,16.986,16.986,0,0,0-32.493,6.931c0,.011,0,.022,0,.033h99.983A9.437,9.437,0,0,0,531.957,73.881Z" transform="translate(2133.221 -1521.298)" fill="#fff"/><path d="M1513.572,362.778a9.432,9.432,0,0,0-8.209,4.781,13.681,13.681,0,0,0-13.024-9.5c-.222,0-.442.006-.661.016a14.628,14.628,0,1,0-28.532,6.263,12.222,12.222,0,0,0-7.673,0,16.985,16.985,0,0,0-32.493,6.931c0,.011,0,.022,0,.033h99.983A9.437,9.437,0,0,0,1513.572,362.778Z" transform="translate(1524.225 -1700.53)" fill="#fff"/><g transform="translate(2497.341 -1376.184)"><g transform="translate(0 23.191)"><path d="M243.574,375.792a.346.346,0,0,1-.336-.261l-5.356-21a.346.346,0,0,1,.25-.421l14.531-3.706a.352.352,0,0,1,.237.024l3.377,1.642a.345.345,0,0,1,.184.226l4.757,18.651a.346.346,0,0,1-.25.421l-17.309,4.415A.333.333,0,0,1,243.574,375.792Zm-4.935-21.1,5.185,20.329,16.637-4.244-4.632-18.159-3.118-1.517Z" transform="translate(-237.872 -350.391)" fill="#fff"/><path d="M275.631,354.769a.347.347,0,0,1-.345-.378l.329-3.685a.347.347,0,0,1,.5-.281l3.377,1.642a.346.346,0,0,1,.016.615l-3.707,2.043A.344.344,0,0,1,275.631,354.769Zm.63-3.5-.227,2.536,2.551-1.406Z" transform="translate(-261.083 -350.391)" fill="#fff"/><path d="M254.768,399.16a.347.347,0,0,1-.085-.682l12.67-3.231a.346.346,0,0,1,.171.671l-12.669,3.231A.332.332,0,0,1,254.768,399.16Z" transform="translate(-248.139 -378.213)" fill="#fff"/><path d="M252.991,392.191a.346.346,0,0,1-.085-.682l12.67-3.232a.346.346,0,0,1,.171.672l-12.669,3.232A.332.332,0,0,1,252.991,392.191Z" transform="translate(-247.037 -373.889)" fill="#fff"/><path d="M251.213,385.223a.346.346,0,0,1-.085-.682l12.669-3.232a.346.346,0,1,1,.171.672L251.3,385.212A.349.349,0,0,1,251.213,385.223Z" transform="translate(-245.934 -369.566)" fill="#fff"/><path d="M249.436,378.254a.347.347,0,0,1-.085-.683l12.669-3.232a.347.347,0,0,1,.171.672l-12.669,3.232A.334.334,0,0,1,249.436,378.254Z" transform="translate(-244.831 -365.242)" fill="#fff"/><path d="M247.659,371.285a.346.346,0,0,1-.085-.682l12.669-3.232a.346.346,0,0,1,.171.672l-12.669,3.232A.348.348,0,0,1,247.659,371.285Z" transform="translate(-243.729 -360.919)" fill="#fff"/><path d="M254.555,364.85a.347.347,0,0,1-.085-.682l6.085-1.552a.347.347,0,0,1,.171.672l-6.084,1.551A.332.332,0,0,1,254.555,364.85Z" transform="translate(-248.007 -357.968)" fill="#fff"/></g><g transform="translate(59.966 0)"><path d="M401.547,314.7a.346.346,0,0,1-.336-.261l-5.357-21a.346.346,0,0,1,.25-.422l14.531-3.706a.349.349,0,0,1,.237.024l3.377,1.643a.346.346,0,0,1,.184.226l4.757,18.65a.347.347,0,0,1-.25.422l-17.309,4.415A.349.349,0,0,1,401.547,314.7Zm-4.935-21.1,5.185,20.33,16.637-4.243L413.8,291.527l-3.118-1.517Z" transform="translate(-395.845 -289.297)" fill="#fff"/><path d="M433.6,293.674a.346.346,0,0,1-.345-.377l.329-3.685a.347.347,0,0,1,.5-.281l3.377,1.643a.346.346,0,0,1,.016.615l-3.707,2.043A.347.347,0,0,1,433.6,293.674Zm.63-3.5-.227,2.536,2.551-1.405Z" transform="translate(-419.056 -289.296)" fill="#fff"/><path d="M412.741,338.066a.347.347,0,0,1-.085-.682l12.669-3.232a.347.347,0,0,1,.171.672l-12.669,3.232A.332.332,0,0,1,412.741,338.066Z" transform="translate(-406.112 -317.118)" fill="#fff"/><path d="M410.964,331.1a.347.347,0,0,1-.085-.682l12.669-3.232a.346.346,0,0,1,.171.671l-12.669,3.232A.331.331,0,0,1,410.964,331.1Z" transform="translate(-405.01 -312.794)" fill="#fff"/><path d="M409.186,324.129a.347.347,0,0,1-.085-.683l12.669-3.232a.347.347,0,1,1,.171.672l-12.669,3.232A.348.348,0,0,1,409.186,324.129Z" transform="translate(-403.907 -308.471)" fill="#fff"/><path d="M407.409,317.159a.347.347,0,0,1-.085-.682l12.67-3.232a.347.347,0,1,1,.171.672l-12.669,3.232A.352.352,0,0,1,407.409,317.159Z" transform="translate(-402.804 -304.147)" fill="#fff"/><path d="M405.632,310.191a.347.347,0,0,1-.085-.683l12.669-3.232a.347.347,0,0,1,.171.672l-12.669,3.231A.334.334,0,0,1,405.632,310.191Z" transform="translate(-401.702 -299.825)" fill="#fff"/><path d="M412.529,303.756a.347.347,0,0,1-.085-.682l6.084-1.552a.346.346,0,0,1,.171.671l-6.084,1.552A.332.332,0,0,1,412.529,303.756Z" transform="translate(-405.981 -296.874)" fill="#fff"/></g><path d="M321.058,339.916a.347.347,0,0,1-.14-.664l21.989-9.69a.347.347,0,0,1,.28.634l-21.989,9.69A.345.345,0,0,1,321.058,339.916Z" transform="translate(-289.266 -314.259)" fill="#fff"/><path d="M379.389,347.807a.347.347,0,0,1-.308-.5l1.315-2.56-2.653-.73a.347.347,0,0,1,.184-.668l3.064.843a.347.347,0,0,1,.216.492l-1.509,2.94A.347.347,0,0,1,379.389,347.807Z" transform="translate(-324.49 -322.82)" fill="#fff"/><path d="M323.392,351.332h-.022l-3.171-.2a.347.347,0,0,1-.312-.438l.879-3.185a.347.347,0,1,1,.668.184l-.766,2.774,2.745.175a.346.346,0,0,1-.022.692Z" transform="translate(-288.746 -325.252)" fill="#fff"/><path d="M326.251,356.741a.347.347,0,0,1-.14-.664l21.989-9.69a.347.347,0,0,1,.28.634l-21.989,9.69A.349.349,0,0,1,326.251,356.741Z" transform="translate(-292.487 -324.697)" fill="#fff"/></g><g transform="translate(2820.093 -1395.643)"><g transform="translate(0 0)"><rect width="64.53" height="26.677" rx="12.458" transform="translate(4.761)" fill="#97c4de"/><path d="M1092.88,294.378s-5.721,13.979-4.62,12.6,18.157-9.9,18.157-9.9Z" transform="translate(-1088.12 -272.99)" fill="#97c4de"/></g><g transform="translate(12.795 4.504)"><rect width="5.612" height="3.446" transform="translate(49.549 3.446) rotate(180)" fill="#fff"/><rect width="40.224" height="3.446" transform="translate(40.224 3.446) rotate(180)" fill="#fff"/></g><g transform="translate(12.795 11.766)"><rect width="22.918" height="3.446" transform="translate(49.549 3.446) rotate(180)" fill="#fff"/><rect width="22.918" height="3.446" transform="translate(22.918 3.446) rotate(180)" fill="#fff"/></g><g transform="translate(12.795 19.029)"><rect width="15.996" height="3.446" transform="translate(49.549 3.446) rotate(180)" fill="#fff"/><rect width="29.84" height="3.446" transform="translate(29.84 3.446) rotate(180)" fill="#fff"/></g></g><g transform="translate(2857.381 -1156.694)"><path d="M1251.881,901.161l-11.991,2.12-1.164-3.78,3.506-2.687Z" transform="translate(-1218.844 -885.692)" fill="#b1b2b6"/><path d="M1216.44,867.515l-30.089,5.017,26.9,5.916Z" transform="translate(-1186.351 -867.515)" fill="#fff"/><path d="M1209.615,901.055,1186.4,881.26l26.105,8.78Z" transform="translate(-1186.384 -876.043)" fill="#fff"/><path d="M1213.284,886.975l6.137,4.537s-6.3-1.235-6.911-1.472-26.106-8.78-26.106-8.78Z" transform="translate(-1186.384 -876.042)" fill="#dfe0e2"/></g><g transform="translate(2555.369 -1285.4)"><g transform="translate(0 0)"><path d="M403.918,553.776a12.145,12.145,0,1,1,12.145-12.144A12.158,12.158,0,0,1,403.918,553.776Z" transform="translate(-391.382 -529.095)" fill="#f7f6f1"/><path d="M403.278,529.239a11.752,11.752,0,1,1-11.752,11.752,11.766,11.766,0,0,1,11.752-11.752Zm0-.785a12.537,12.537,0,1,0,12.537,12.537,12.537,12.537,0,0,0-12.537-12.537Z" transform="translate(-390.741 -528.454)" fill="#f78d4a"/></g><g transform="translate(4.75 4.857)"><path d="M406.783,556.7a3.556,3.556,0,0,1-1.553-5.982l7.781-7.569a3.555,3.555,0,0,1,5.028.07,3.555,3.555,0,0,1-.069,5.028l-7.781,7.569A3.576,3.576,0,0,1,406.783,556.7Z" transform="translate(-403.813 -541.806)" fill="#f7f6f1"/><path d="M415.77,542.039h0a3.217,3.217,0,0,1,1.4,5.41l-7.781,7.569a3.216,3.216,0,0,1-4.485-4.61l7.781-7.569a3.234,3.234,0,0,1,3.08-.8Zm.176-.657a3.894,3.894,0,0,0-3.731.969l-7.781,7.569a3.9,3.9,0,0,0-.076,5.509h0a3.894,3.894,0,0,0,5.509.076l7.781-7.569a3.9,3.9,0,0,0-1.7-6.555Z" transform="translate(-403.255 -541.249)" fill="#f78d4a"/><path d="M410.417,557.045c-1.008-1.036-1.954-2.442-1.891-3.435l-4.091,3.98a3.9,3.9,0,1,0,5.433,5.585l4.226-4.111C413.129,559.122,411.428,558.085,410.417,557.045Z" transform="translate(-403.255 -548.918)" fill="#f78d4a"/><g transform="translate(1.106 7.399)"><path d="M406.878,566.214a.85.85,0,0,1-.6-.585c-.549-1.9.991-3.444,2.569-4.7a.85.85,0,1,1,1.061,1.329c-1.593,1.272-2.209,2.167-2,2.9a.85.85,0,0,1-1.036,1.057Z" transform="translate(-406.168 -560.739)" fill="#f7f6f1"/></g></g></g><g transform="translate(2561.856 -1450.18)"><g transform="translate(341.259 307.026)"><path d="M1308.164,903.993q-.667-.022-1.333-.051l.034-.758q.662.03,1.323.051Z" transform="translate(-1306.831 -903.183)" fill="#6da6c7"/></g><g transform="translate(0.257 0)"><path d="M754.064,402.251l-.551,0,0-.759.547,0q1.053,0,2.106-.022l.016.759Q755.125,402.251,754.064,402.251Zm4.794-.113-.036-.758c.88-.041,1.771-.1,2.649-.159l.055.757C760.642,402.042,759.745,402.1,758.858,402.138Zm5.332-.39-.075-.755c.881-.088,1.768-.187,2.637-.3l.094.753C765.971,401.559,765.078,401.659,764.19,401.748Zm5.3-.665-.113-.75c.87-.132,1.751-.277,2.618-.431l.133.747C771.259,400.8,770.372,400.95,769.495,401.083Zm5.263-.935-.152-.744c.865-.177,1.737-.366,2.593-.564l.171.74C776.508,399.779,775.629,399.97,774.758,400.148Zm5.208-1.2-.189-.735c.85-.219,1.712-.453,2.561-.695l.208.73C781.691,398.49,780.823,398.726,779.966,398.946Zm5.142-1.464-.226-.725c.846-.264,1.695-.541,2.522-.823l.245.718C786.815,396.936,785.96,397.215,785.108,397.482Zm5.06-1.723-.262-.713c.826-.3,1.659-.625,2.477-.951l.281.7C791.84,395.129,791,395.452,790.168,395.759Zm4.967-1.978-.3-.7c.807-.346,1.624-.708,2.426-1.076l.317.69C796.771,393.068,795.949,393.432,795.135,393.78Zm4.859-2.229-.334-.682c.793-.388,1.589-.791,2.367-1.2l.352.673C801.6,390.754,800.793,391.16,799.994,391.551Zm4.738-2.477-.369-.664c.775-.431,1.55-.875,2.3-1.319l.386.653C806.294,388.193,805.513,388.641,804.732,389.075Zm4.6-2.719-.4-.643c.749-.47,1.5-.954,2.229-1.439l.42.632C810.845,385.394,810.09,385.882,809.335,386.355Zm4.452-2.957-.435-.623.044-.031c.7-.5,1.411-1.007,2.1-1.521l.453.609c-.7.518-1.41,1.034-2.117,1.531Zm4.29-3.187-.469-.6c.683-.535,1.379-1.094,2.067-1.663l.483.586C819.466,379.108,818.765,379.672,818.077,380.211Zm4.12-3.4-.5-.573c.664-.577,1.33-1.171,1.98-1.766l.512.561C823.537,375.63,822.866,376.228,822.2,376.81Zm3.944-3.606-.526-.547c.637-.612,1.273-1.238,1.89-1.862l.54.534C827.423,371.956,826.782,372.587,826.141,373.2Zm3.76-3.8-.553-.52c.6-.642,1.208-1.3,1.795-1.955l.566.506C831.117,368.1,830.509,368.758,829.9,369.4Zm3.564-3.984-.579-.492c.566-.666,1.136-1.354,1.693-2.044l.591.477C834.609,364.057,834.035,364.749,833.465,365.42Zm3.358-4.16-.6-.462c.539-.7,1.072-1.419,1.586-2.128l.615.446C837.9,359.83,837.366,360.552,836.823,361.26Zm3.139-4.329-.626-.429c.5-.731,1-1.474,1.471-2.209l.637.412C840.966,355.445,840.467,356.194,839.962,356.931Zm2.905-4.491-.649-.4c.46-.754.914-1.523,1.349-2.285l.659.377C843.788,350.905,843.33,351.68,842.867,352.44Zm2.656-4.644-.67-.358c.416-.779.826-1.572,1.218-2.358l.679.339C846.356,346.211,845.943,347.012,845.523,347.8Zm2.386-4.79-.69-.318c.37-.8.732-1.616,1.077-2.425l.7.3C848.646,341.376,848.281,342.2,847.909,343.006Zm2.1-4.924-.707-.276q.147-.377.29-.753c.208-.55.416-1.132.617-1.731l.72.242c-.2.608-.416,1.2-.627,1.758Q850.152,337.7,850,338.082ZM851.72,333l-.73-.21c.231-.8.457-1.639.692-2.561l.736.188C852.181,331.35,851.953,332.195,851.72,333Zm1.326-5.179-.74-.172q.3-1.291.583-2.594l.741.163Q853.344,326.528,853.046,327.826Zm1.152-5.207-.742-.162q.284-1.3.576-2.605l.741.167Q854.479,321.317,854.2,322.619Zm1.18-5.189-.738-.18c.227-.929.445-1.777.667-2.592l.733.2C855.819,315.665,855.6,316.507,855.378,317.429Zm1.406-5.116-.725-.227c.279-.886.57-1.74.866-2.539l.712.264C857.345,310.6,857.058,311.44,856.784,312.313Zm15.015-3.567a17.312,17.312,0,0,1-2.488-.183l.11-.751a16.551,16.551,0,0,0,2.378.175l.214,0,.011.759Zm2.936-.267-.137-.747a15.564,15.564,0,0,0,2.059-.528c.148-.048.294-.1.439-.157l.273.709c-.157.061-.315.117-.474.17A16.369,16.369,0,0,1,874.735,308.479Zm-8.074-.5a22.747,22.747,0,0,1-2.546-.919l.3-.7a22.062,22.062,0,0,0,2.461.888Zm-8.034-.615-.694-.307c.372-.84.769-1.654,1.18-2.419l.669.359C859.38,305.746,858.992,306.542,858.628,307.365Zm21.165-.9-.434-.623a11.588,11.588,0,0,0,1.936-1.7l.561.512A12.359,12.359,0,0,1,879.792,306.46Zm-18.1-.587c-.761-.42-1.535-.892-2.3-1.4l.421-.632c.749.5,1.5.961,2.247,1.37Zm-4.481-2.976c-.691-.535-1.388-1.11-2.071-1.71l.5-.571c.672.59,1.357,1.155,2.035,1.681Zm3.914-.158-.635-.417c.5-.762,1.034-1.495,1.588-2.18l.59.478C862.129,301.285,861.609,302,861.123,302.739Zm22.331-.325-.668-.36a8.072,8.072,0,0,0,.856-2.384l.747.135A8.843,8.843,0,0,1,883.454,302.414Zm-30.286-3.051c-.626-.611-1.258-1.256-1.876-1.919l.555-.518c.61.654,1.233,1.291,1.851,1.894Zm11.247-.691-.537-.537a25.176,25.176,0,0,1,2.007-1.8l.476.591A24.4,24.4,0,0,0,864.415,298.672Zm19.179-1.49a5.7,5.7,0,0,0-1.087-2.225l.594-.473a6.477,6.477,0,0,1,1.231,2.522Zm-34.088-1.738c-.537-.627-1.076-1.281-1.6-1.944l-.1-.124.592-.475.1.128c.52.654,1.053,1.3,1.583,1.921Zm18.978-.051-.411-.638c.74-.477,1.525-.93,2.333-1.345l.347.675C869.967,294.49,869.2,294.93,868.484,295.394Zm12.1-2.02a8,8,0,0,0-2.4-.814l.133-.747a8.761,8.761,0,0,1,2.625.892Zm-7.451-.369-.26-.713a10.6,10.6,0,0,1,2.691-.591l.067.756A9.838,9.838,0,0,0,873.133,293.005Zm-26.963-1.743c-.541-.715-1.076-1.438-1.589-2.148l.615-.445c.51.706,1.042,1.424,1.579,2.134Zm-3.134-4.327c-.5-.72-1-1.464-1.5-2.21l.632-.421c.492.742.995,1.482,1.491,2.2Zm-2.955-4.45q-.717-1.126-1.413-2.265l.648-.4q.692,1.133,1.406,2.254Zm-2.786-4.556q-.676-1.15-1.333-2.313l.661-.374q.655,1.157,1.327,2.3Zm-428.034-2.39-.758-.049q.088-1.33.184-2.662l.757.055Q409.349,274.211,409.262,275.538Zm425.406-2.257q-.638-1.171-1.26-2.352l.672-.353q.619,1.177,1.254,2.342Zm-425.019-3.054-.757-.062q.108-1.329.229-2.658l.756.069Q409.756,268.9,409.649,270.227Zm422.534-1.669q-.6-1.187-1.195-2.386l.681-.335q.589,1.194,1.19,2.377Zm-422.05-3.629-.755-.078q.137-1.327.29-2.653l.754.087Q410.269,263.607,410.133,264.93Zm419.69-1.156q-.366-.764-.727-1.533-.21-.445-.4-.892l.7-.3q.191.437.4.873.36.766.725,1.528Zm-419.076-4.125-.753-.1q.174-1.324.368-2.644l.751.111Q410.92,258.331,410.747,259.649Zm416.962-.806c-.289-.824-.557-1.688-.8-2.568l.732-.2c.238.864.5,1.711.784,2.519Zm-416.184-4.45-.749-.124c.147-.885.3-1.77.464-2.629l.746.14C411.828,252.634,411.673,253.514,411.526,254.394Zm414.75-.727c-.18-.843-.341-1.7-.494-2.635l.748-.123c.151.918.311,1.769.487,2.6ZM412.5,249.176l-.743-.156c.184-.876.379-1.754.579-2.608l.739.173C412.88,247.434,412.687,248.306,412.5,249.176Zm412.893-.793c-.1-.8-.2-1.665-.308-2.653l.755-.08c.1.981.2,1.844.306,2.636Zm-411.679-4.372-.734-.192c.227-.865.467-1.732.713-2.576l.729.213C414.181,242.293,413.943,243.153,413.719,244.012Zm411.107-.933-.253-2.649.755-.073.253,2.65Zm-409.619-4.155-.722-.234c.277-.853.568-1.7.866-2.531l.714.257C415.769,237.235,415.48,238.078,415.206,238.923ZM824.3,237.787c-.1-.949-.209-1.81-.32-2.633l.753-.1c.111.828.216,1.7.322,2.651ZM417,233.938l-.7-.281c.331-.831.68-1.661,1.036-2.468l.695.306C417.676,232.294,417.331,233.116,417,233.938Zm406.585-1.406q-.216-1.311-.454-2.619l.747-.136q.239,1.313.456,2.63Zm-404.445-3.44-.682-.332c.392-.806.8-1.608,1.22-2.385l.669.359C419.937,227.5,419.531,228.3,419.143,229.092Zm27.646-.2a6.985,6.985,0,0,1-1.169-.1l.128-.748a6.241,6.241,0,0,0,2.491-.083l.176.738A7.017,7.017,0,0,1,446.789,228.89ZM443,227.852a8.391,8.391,0,0,1-2.144-1.76l.57-.5a7.622,7.622,0,0,0,1.95,1.6Zm7.955-.28-.42-.632a9.061,9.061,0,0,0,1.9-1.7l.579.491A9.808,9.808,0,0,1,450.958,227.572Zm371.678-.269q-.26-1.3-.541-2.6l.742-.161q.282,1.305.543,2.614Zm-400.987-2.876-.654-.386c.457-.773.933-1.539,1.413-2.278l.637.414C422.571,222.906,422.1,223.663,421.649,224.427Zm17.685-.625a15,15,0,0,1-.985-2.546l.729-.211a14.185,14.185,0,0,0,.934,2.416Zm15.183-.377-.681-.334a10.358,10.358,0,0,0,.84-2.421l.743.156A11.1,11.1,0,0,1,454.517,223.424Zm366.994-1.315q-.3-1.294-.627-2.582l.736-.185q.325,1.295.63,2.595Zm-396.972-2.119-.615-.445c.537-.743,1.088-1.46,1.638-2.13l.587.481C425.609,218.557,425.068,219.261,424.539,219.991ZM437.78,218.6a24.861,24.861,0,0,1-.243-2.695l.759-.028a24,24,0,0,0,.235,2.612Zm17.075-.475a7.673,7.673,0,0,0-.579-2.429l.685-.329a8.474,8.474,0,0,1,.652,2.7Zm365.359-1.171q-.345-1.283-.711-2.56l.729-.21q.369,1.283.715,2.573ZM427.89,215.919l-.551-.522c.632-.667,1.282-1.3,1.932-1.879l.505.566C429.142,214.65,428.508,215.267,427.89,215.919Zm25.073-2.45a10.883,10.883,0,0,0-1.81-1.819l.473-.594A11.65,11.65,0,0,1,453.562,213Zm-14.633-.216-.758-.046c.04-.653.1-1.308.187-1.946q.048-.366.1-.731l.752.107q-.051.362-.1.724C438.43,211.981,438.369,212.618,438.33,213.253Zm-6.513-.819-.447-.614a23.36,23.36,0,0,1,2.274-1.465l.373.661A22.676,22.676,0,0,0,431.817,212.434Zm386.933-.588q-.387-1.27-.795-2.535l.723-.233q.409,1.271.8,2.547Zm-369.775-1.58a14.223,14.223,0,0,0-2.413-.941l.211-.73a15.111,15.111,0,0,1,2.543.991Zm-12.6-.381-.283-.7a19.155,19.155,0,0,1,1.849-.635q.368-.1.742-.192l.17.74q-.355.082-.7.182A18.485,18.485,0,0,0,436.371,209.885Zm7.645-1.069a15.8,15.8,0,0,0-2.6-.08l-.039-.758a16.4,16.4,0,0,1,2.722.084Zm-4.986-.795-.747-.133c.155-.872.329-1.754.517-2.625l.742.16C439.356,206.285,439.184,207.159,439.03,208.022Zm378.089-1.233q-.429-1.257-.878-2.508l.715-.257q.452,1.256.881,2.52Zm-376.976-3.944-.736-.186c.215-.857.45-1.726.7-2.582l.729.21C440.589,201.135,440.357,202,440.143,202.844Zm375.18-1.057q-.469-1.243-.959-2.478l.706-.279q.491,1.24.963,2.489Zm-373.714-4.035-.722-.235c.273-.842.565-1.694.867-2.532l.714.258C442.169,196.074,441.88,196.918,441.609,197.752Zm371.757-.906q-.51-1.227-1.039-2.447l.7-.3q.532,1.224,1.044,2.458Zm-369.959-4.081-.705-.28c.327-.824.673-1.655,1.026-2.472l.7.3C444.075,191.124,443.733,191.948,443.408,192.765Zm367.841-.793q-.549-1.21-1.118-2.411l.687-.325q.57,1.207,1.122,2.422ZM445.518,187.9l-.687-.323c.375-.8.77-1.606,1.174-2.4l.677.343C446.281,186.306,445.889,187.108,445.518,187.9Zm363.456-.73q-.588-1.191-1.2-2.373l.674-.347q.611,1.187,1.2,2.384Zm-361.059-4-.667-.363c.427-.785.868-1.569,1.311-2.332l.657.381C448.777,181.608,448.339,182.387,447.915,183.165Zm358.628-.723q-.627-1.172-1.273-2.333l.664-.369q.65,1.166,1.279,2.344Zm-355.962-3.868-.646-.4c.463-.749.947-1.508,1.438-2.256l.634.416C451.52,177.079,451.041,177.832,450.581,178.575ZM803.96,177.8q-.665-1.15-1.349-2.289l.651-.391q.687,1.144,1.355,2.3Zm-350.468-3.663-.624-.433c.5-.727,1.027-1.459,1.553-2.177l.612.449C454.512,172.687,453.993,173.414,453.492,174.136Zm347.733-.894q-.7-1.128-1.424-2.243l.638-.412q.724,1.121,1.43,2.254ZM456.63,169.853l-.6-.464c.544-.7,1.1-1.409,1.66-2.1l.589.478C457.726,168.454,457.171,169.154,456.63,169.853Zm341.711-1.075c-.506-.753-1.012-1.489-1.5-2.186l.62-.438c.5.7,1,1.442,1.513,2.2Zm-338.363-3.047-.577-.493c.574-.673,1.166-1.35,1.759-2.012l.566.506C461.137,164.391,460.549,165.064,459.978,165.732Zm335.3-1.285c-.543-.724-1.089-1.429-1.622-2.094l.591-.475c.539.672,1.091,1.382,1.639,2.114Zm-331.758-2.67-.553-.52c.608-.648,1.231-1.3,1.851-1.927l.541.532C464.743,160.488,464.124,161.133,463.52,161.777Zm328.438-1.455c-.586-.673-1.184-1.332-1.778-1.958l.55-.523c.6.634,1.208,1.3,1.8,1.982ZM467.241,157.99l-.529-.544c.632-.614,1.283-1.234,1.936-1.841l.517.556C468.516,156.764,467.868,157.379,467.241,157.99Zm321.071-1.5c-.636-.607-1.294-1.2-1.956-1.776l.5-.575c.672.58,1.34,1.186,1.984,1.8Zm-317.183-2.117-.5-.568c.66-.587,1.338-1.176,2.016-1.752l.492.578C472.458,153.207,471.784,153.793,471.128,154.376Zm313.184-1.336c-.68-.531-1.395-1.061-2.123-1.576l.438-.62c.738.522,1.462,1.059,2.152,1.6Zm-309.141-2.1-.48-.588c.684-.558,1.385-1.119,2.085-1.667l.469.6C476.549,149.823,475.852,150.381,475.172,150.935ZM780,149.982c-.718-.464-1.475-.933-2.25-1.4l.388-.652c.783.467,1.548.941,2.274,1.409Zm-300.646-2.322-.457-.606q1.066-.8,2.147-1.587l.446.615Q480.412,146.86,479.351,147.659Zm296.1-.392c-.739-.41-1.526-.832-2.336-1.256l.351-.673c.817.426,1.609.852,2.354,1.265Zm-4.706-2.486c-.771-.418-1.553-.87-2.325-1.346l.4-.646c.76.468,1.53.914,2.289,1.324Zm-287.091-.242-.435-.623q1.094-.764,2.2-1.51l.424.63Q484.74,143.779,483.651,144.54Zm282.519-2.572c-.735-.508-1.464-1.04-2.169-1.582l.463-.6c.694.534,1.413,1.059,2.137,1.559Zm-278.111-.4-.414-.637q1.12-.727,2.251-1.435l.4.643Q489.172,140.849,488.058,141.572Zm4.5-2.823-.393-.649q1.141-.691,2.294-1.366l.383.655Q493.7,138.061,492.562,138.749Zm269.357-.056c-.686-.589-1.355-1.2-1.989-1.8l.526-.547c.623.6,1.282,1.2,1.957,1.776Zm-264.768-2.63-.374-.66q1.16-.658,2.331-1.3l.365.666Q498.307,135.407,497.15,136.063Zm260.9-1.094c-.615-.668-1.206-1.354-1.756-2.038l.592-.476c.539.671,1.118,1.343,1.722,2ZM501.812,133.5l-.357-.67q1.178-.626,2.364-1.239l.348.675Q502.985,132.879,501.812,133.5Zm4.726-2.44-.341-.679q1.192-.6,2.392-1.182l.333.682Q507.726,130.468,506.538,131.063Zm248.149-.295c-.518-.757-1-1.528-1.423-2.29l.662-.371c.416.743.883,1.494,1.388,2.234ZM511.32,128.733l-.325-.686q1.2-.571,2.416-1.131l.319.689Q512.522,128.163,511.32,128.733Zm246.572-1.206c-.8,0-1.63-.041-2.454-.122l.074-.756c.8.079,1.6.118,2.38.118h.239l.006.759Zm2.948-.19-.1-.752a19.192,19.192,0,0,0,2.558-.514l.2.732A19.8,19.8,0,0,1,760.84,127.337Zm-8.073-.329c-.875-.174-1.756-.393-2.619-.651l.217-.727c.841.251,1.7.464,2.55.634ZM516.149,126.5l-.312-.692q1.216-.548,2.437-1.085l.305.7Q517.362,125.954,516.149,126.5Zm235.915-.443a22.581,22.581,0,0,1-.925-2.546l.728-.215a21.928,21.928,0,0,0,.894,2.46Zm14-.175-.313-.692a15.321,15.321,0,0,0,2.267-1.263l.426.629A16.061,16.061,0,0,1,766.06,125.882Zm-18.457-.4c-.8-.309-1.638-.661-2.476-1.043l.316-.69c.824.377,1.642.721,2.432,1.025Zm-226.583-1.125-.3-.7q1.225-.526,2.454-1.043l.294.7Q522.241,123.832,521.019,124.358Zm221.7-1.093c-.749-.387-1.52-.8-2.355-1.272l.372-.662c.827.465,1.59.876,2.332,1.259Zm27.823-.465-.547-.527a12.769,12.769,0,0,0,1.59-2.035l.642.405A13.582,13.582,0,0,1,770.539,122.8Zm-244.615-.506-.289-.7q1.232-.508,2.468-1.007l.285.7Q527.154,121.788,525.924,122.294Zm224.623-1.429a18.1,18.1,0,0,1-.2-2.682l.759-.026a17.327,17.327,0,0,0,.2,2.595Zm-12.5-.207q-1.148-.677-2.29-1.367l.392-.651q1.14.686,2.284,1.364Zm-207.19-.359-.28-.706q1.239-.492,2.48-.976l.276.708Q532.095,119.808,530.858,120.3Zm4.957-1.936-.273-.708q1.244-.478,2.491-.951l.269.71Q537.057,117.886,535.815,118.363Zm237.641-.158-.707-.276a13.392,13.392,0,0,0,.706-2.488l.747.136A14.2,14.2,0,0,1,773.456,118.2Zm-39.981-.285q-.677-.4-1.354-.8-.469-.274-.938-.544l.378-.658q.473.272.944.547.681.4,1.36.8Zm-192.681-1.441-.265-.711q1.249-.466,2.5-.924l.261.713Q542.042,116.014,540.795,116.478Zm210.518-.912-.75-.121a17.586,17.586,0,0,1,.643-2.642l.721.236A16.737,16.737,0,0,0,751.313,115.566Zm-22.447-.294q-1.164-.641-2.34-1.26l.354-.672q1.181.623,2.352,1.267Zm-183.072-.625-.257-.714q1.254-.452,2.511-.9l.253.716Q547.046,114.2,545.794,114.647Zm5.018-1.773-.249-.717q1.26-.436,2.522-.865l.244.719Q552.069,112.438,550.812,112.873Zm222.839,0a10.556,10.556,0,0,0-.388-2.535l.73-.207a11.311,11.311,0,0,1,.416,2.718Zm-49.487-.075q-1.187-.6-2.384-1.173l.329-.684q1.2.579,2.4,1.18ZM555.852,111.16l-.24-.72q1.265-.421,2.532-.834l.235.722Q557.115,110.74,555.852,111.16Zm197.072-.515-.668-.361a12.35,12.35,0,0,1,1.568-2.249l.572.5A11.588,11.588,0,0,0,752.924,110.645Zm-33.548-.154q-1.208-.555-2.424-1.088l.3-.7q1.224.536,2.436,1.094Zm-158.463-.979-.231-.723q1.27-.4,2.544-.8l.225.725Q562.181,109.108,560.913,109.512Zm153.6-1.154q-1.226-.512-2.461-1l.281-.706q1.24.494,2.472,1.008ZM772.237,108a8.659,8.659,0,0,0-.962-1.268,8.486,8.486,0,0,0-.684-.669l.5-.572a9.4,9.4,0,0,1,1.791,2.107ZM566,107.932l-.22-.727q1.275-.387,2.554-.765l.215.728Q567.269,107.546,566,107.932Zm190.288-1.163-.462-.6a14.845,14.845,0,0,1,2.311-1.454l.344.677A14.049,14.049,0,0,0,756.284,106.769ZM571.1,106.424l-.21-.73q1.281-.369,2.565-.727l.2.731Q572.375,106.056,571.1,106.424Zm138.475-.03q-1.243-.47-2.493-.919l.256-.714q1.256.451,2.5.924Zm-133.351-1.4-.2-.733q1.286-.35,2.576-.688l.193.734Q577.506,104.643,576.221,104.992Zm192.226-.285a9.412,9.412,0,0,0-2.456-.7l.108-.751a10.173,10.173,0,0,1,2.654.752Zm-63.875-.109q-1.257-.429-2.522-.836l.233-.722q1.27.409,2.534.84Zm56.311-.165-.215-.728a13.793,13.793,0,0,1,2.687-.512l.066.756A13.035,13.035,0,0,0,760.883,104.432Zm-179.516-.794-.187-.736q1.292-.329,2.587-.647l.181.738Q582.656,103.31,581.367,103.639Zm118.149-.673q-1.27-.387-2.547-.754l.21-.73q1.283.369,2.559.758Zm-112.983-.6-.175-.739q1.3-.307,2.6-.6l.168.74Q587.827,102.063,586.533,102.37ZM694.41,101.5q-1.282-.347-2.57-.674l.187-.736q1.294.329,2.581.677Zm-102.689-.309-.162-.742q1.3-.285,2.608-.558l.156.743Q593.02,100.9,591.72,101.189Zm97.538-1q-1.292-.307-2.59-.595l.165-.741q1.3.289,2.6.6Zm-92.332-.09-.149-.744q1.308-.262,2.618-.511l.142.746Q598.23,99.839,596.926,100.1Zm5.226-.993-.135-.747q1.312-.237,2.627-.461l.128.749Q603.46,98.87,602.152,99.106Zm81.919-.068q-1.3-.269-2.606-.517l.142-.746q1.311.25,2.618.52Zm-76.676-.825-.12-.75q1.316-.211,2.636-.409l.113.751Q608.708,98,607.395,98.213Zm71.456-.172q-1.308-.23-2.621-.441l.121-.75q1.318.213,2.631.443Zm-66.195-.617-.105-.752q1.321-.184,2.644-.355l.1.753Q613.973,97.241,612.656,97.425ZM673.6,97.2q-1.315-.192-2.632-.367l.1-.752q1.323.175,2.643.368Zm-55.673-.452-.089-.754q1.324-.156,2.651-.3l.081.755Q619.251,96.589,617.93,96.745Zm50.4-.246q-1.319-.156-2.642-.294l.079-.755q1.328.138,2.653.295Zm-45.114-.322-.073-.756q1.327-.128,2.657-.241l.065.757Q624.543,96.05,623.22,96.177Zm39.827-.23q-1.324-.12-2.65-.222l.058-.757q1.33.1,2.659.223Zm-34.527-.221-.056-.757q1.331-.1,2.662-.181l.047.758Q629.845,95.629,628.519,95.727Zm29.226-.189q-1.327-.085-2.655-.151l.038-.758q1.333.067,2.664.152ZM633.829,95.4l-.038-.758q1.332-.067,2.666-.118l.029.759Q635.156,95.33,633.829,95.4Zm18.606-.127q-1.328-.05-2.658-.083l.019-.759q1.335.033,2.668.083Zm-13.292-.076-.019-.759q1.334-.035,2.668-.052l.011.759Q640.471,95.16,639.142,95.194Zm7.976-.056c-.834-.01-1.666-.017-2.5-.015h-.159v-.759h.159c.842,0,1.673,0,2.509.015Z" transform="translate(-408.504 -94.364)" fill="#6da6c7"/></g><g transform="translate(0 183.963)"><path d="M408.586,580.364l-.758-.044.079-1.329.758.046Z" transform="translate(-407.828 -578.991)" fill="#6da6c7"/></g></g><g transform="translate(2996.677 -1252.442)"><g transform="translate(0 0)"><path d="M1567.137,641.774a12.666,12.666,0,1,1,12.666-12.666A12.68,12.68,0,0,1,1567.137,641.774Z" transform="translate(-1554.029 -616)" fill="#f7f6f1"/><path d="M1566.415,616.162a12.224,12.224,0,1,1-12.224,12.224,12.237,12.237,0,0,1,12.224-12.224Zm0-.884a13.108,13.108,0,1,0,13.108,13.108,13.108,13.108,0,0,0-13.108-13.108Z" transform="translate(-1553.307 -615.278)" fill="#f78d4a"/></g><g transform="translate(2.721 2.752)"><g transform="translate(0 13.294)"><path d="M1565.259,659.132a.334.334,0,0,1-.137-.03c-1.882-.843-3.3-1.245-4.073-.467a.336.336,0,0,1-.475-.476c1.166-1.167,3.1-.442,4.823.329a.336.336,0,0,1-.138.643Z" transform="translate(-1560.476 -657.548)" fill="#f78d4a"/></g><g transform="translate(6.471 4.088)"><path d="M1580.975,645.944a8.679,8.679,0,0,1-3.254-.953.336.336,0,1,1,.276-.613c1.9.852,3.323,1.26,4.1.481.984-.984.007-3.074-.938-5.094-1.043-2.231-2.122-4.537-.8-5.855,1.164-1.165,3.088-.446,4.8.319a.336.336,0,0,1-.275.614c-1.87-.836-3.274-1.233-4.05-.458-.984.984-.007,3.074.938,5.094,1.044,2.231,2.122,4.537.8,5.854A2.16,2.16,0,0,1,1580.975,645.944Z" transform="translate(-1577.522 -633.296)" fill="#f78d4a"/></g><g transform="translate(15.676 5.934)"><path d="M1605.224,639.756a8.675,8.675,0,0,1-3.254-.954.336.336,0,1,1,.275-.613c1.9.853,3.322,1.26,4.1.481a.336.336,0,1,1,.475.476A2.161,2.161,0,0,1,1605.224,639.756Z" transform="translate(-1601.771 -638.159)" fill="#f78d4a"/></g><g transform="translate(4.092 8.69)"><path d="M1573.846,657.556a.336.336,0,0,1-.238-.574c.984-.984.007-3.074-.938-5.094-1.043-2.23-2.122-4.537-.8-5.854,1.163-1.163,3.08-.448,4.785.312a.336.336,0,1,1-.274.614c-1.611-.719-3.215-1.271-4.036-.451-.984.984-.006,3.074.939,5.095,1.043,2.231,2.122,4.537.8,5.855A.335.335,0,0,1,1573.846,657.556Z" transform="translate(-1571.256 -645.42)" fill="#f78d4a"/></g><g transform="translate(11.213)"><path d="M1593.336,634.656a8.335,8.335,0,0,1-3.12-.886.336.336,0,1,1,.272-.615c1.578.7,3.149,1.234,3.964.419.984-.984.006-3.073-.939-5.094-1.043-2.23-2.122-4.537-.8-5.854a.336.336,0,1,1,.475.476c-.984.984-.006,3.073.939,5.094,1.043,2.231,2.122,4.537.8,5.854A2.15,2.15,0,0,1,1593.336,634.656Z" transform="translate(-1590.016 -622.527)" fill="#f78d4a"/></g><g transform="translate(14.569 0.762)"><path d="M1604.081,629.93a.171.171,0,0,1-.12-.05l-5.057-5.057a.17.17,0,0,1,.241-.24l5.057,5.057a.17.17,0,0,1-.12.29Z" transform="translate(-1598.854 -624.533)" fill="#f78d4a"/></g><g transform="translate(14.626 2.852)"><path d="M1602.085,633.288a.169.169,0,0,1-.12-.05l-2.908-2.908a.17.17,0,0,1,.24-.24l2.909,2.908a.17.17,0,0,1-.12.29Z" transform="translate(-1599.007 -630.04)" fill="#f78d4a"/></g><g transform="translate(12.212 5.421)"><path d="M1595.61,639.939a.17.17,0,0,1-.12-.049L1592.7,637.1a.17.17,0,1,1,.24-.24l2.793,2.793a.17.17,0,0,1-.12.29Z" transform="translate(-1592.647 -636.807)" fill="#f78d4a"/></g><g transform="translate(9.955 5.513)"><path d="M1591.828,642.347a.17.17,0,0,1-.12-.05l-4.958-4.958a.17.17,0,0,1,.241-.241l4.958,4.958a.17.17,0,0,1-.12.29Z" transform="translate(-1586.7 -637.05)" fill="#f78d4a"/></g><g transform="translate(9.862 7.77)"><path d="M1589.42,646.129a.17.17,0,0,1-.12-.049l-2.793-2.793a.17.17,0,0,1,.24-.24l2.793,2.793a.17.17,0,0,1-.12.29Z" transform="translate(-1586.457 -642.997)" fill="#f78d4a"/></g><g transform="translate(7.688 9.906)"><path d="M1583.691,651.756a.17.17,0,0,1-.12-.05l-2.793-2.793a.17.17,0,1,1,.241-.24l2.793,2.793a.17.17,0,0,1-.12.29Z" transform="translate(-1580.729 -648.624)" fill="#f78d4a"/></g><g transform="translate(5.43 9.999)"><path d="M1579.909,654.164a.171.171,0,0,1-.12-.05l-4.958-4.958a.17.17,0,0,1,.241-.241l4.957,4.958a.17.17,0,0,1-.12.29Z" transform="translate(-1574.781 -648.867)" fill="#f78d4a"/></g><g transform="translate(5.338 12.256)"><path d="M1577.5,657.946a.171.171,0,0,1-.12-.05l-2.793-2.793a.17.17,0,0,1,.24-.24l2.793,2.793a.17.17,0,0,1-.12.29Z" transform="translate(-1574.538 -654.814)" fill="#f78d4a"/></g><g transform="translate(3.068 14.526)"><path d="M1571.521,663.926a.171.171,0,0,1-.12-.05l-2.793-2.793a.17.17,0,0,1,.24-.24l2.793,2.793a.17.17,0,0,1-.12.29Z" transform="translate(-1568.559 -660.794)" fill="#f78d4a"/></g><g transform="translate(0.81 14.618)"><path d="M1567.739,666.334a.17.17,0,0,1-.12-.05l-4.958-4.958a.17.17,0,0,1,.24-.24l4.958,4.957a.17.17,0,0,1-.12.29Z" transform="translate(-1562.611 -661.037)" fill="#f78d4a"/></g></g></g><g transform="translate(2600.103 -1391.279)"><g transform="translate(0 0)"><circle cx="12.223" cy="12.223" r="12.223" transform="translate(0 24.424) rotate(-87.513)" fill="#f7f6f1"/><path d="M521.463,275.066a12.66,12.66,0,1,1,12.66-12.66A12.675,12.675,0,0,1,521.463,275.066Zm0-24.447a11.787,11.787,0,1,0,11.787,11.787A11.8,11.8,0,0,0,521.463,250.619Z" transform="translate(-508.721 -249.664)" fill="#f78d4a"/></g><g transform="translate(5.856 4.945)"><g transform="translate(0 0.348)"><path d="M531.041,279.083a7.037,7.037,0,0,1-7.029-7.029v-5.6A2.987,2.987,0,0,1,527,263.475h1.813v.873H527a2.113,2.113,0,0,0-2.111,2.111v5.6a6.156,6.156,0,1,0,12.312,0v-5.6a2.113,2.113,0,0,0-2.111-2.111h-1.827v-.873h1.827a2.987,2.987,0,0,1,2.984,2.984v5.6A7.037,7.037,0,0,1,531.041,279.083Z" transform="translate(-524.012 -263.475)" fill="#f78d4a"/></g><g transform="translate(6.592 15.52)"><path d="M549,311.065a7.632,7.632,0,0,1-7.623-7.623h.873a6.75,6.75,0,1,0,13.5,0h.873A7.632,7.632,0,0,1,549,311.065Z" transform="translate(-541.379 -303.442)" fill="#f78d4a"/></g><path d="M534.58,263.342a.785.785,0,1,1,.785.785A.785.785,0,0,1,534.58,263.342Z" transform="translate(-530.568 -262.557)" fill="#f78d4a"/><path d="M546.389,263.342a.785.785,0,1,1,.785.785A.785.785,0,0,1,546.389,263.342Z" transform="translate(-537.895 -262.557)" fill="#f78d4a"/><g transform="translate(18.398 12.514)"><path d="M578.766,299.243a2.569,2.569,0,1,1-2.569-2.569A2.569,2.569,0,0,1,578.766,299.243Z" transform="translate(-573.191 -296.237)" fill="#f7f6f1"/><path d="M575.484,301.535a3.006,3.006,0,1,1,3.006-3.006A3.009,3.009,0,0,1,575.484,301.535Zm0-5.138a2.133,2.133,0,1,0,2.132,2.133A2.135,2.135,0,0,0,575.484,296.4Z" transform="translate(-572.478 -295.524)" fill="#f78d4a"/></g><g transform="translate(19.892 14.009)"><path d="M579.714,301.686a1.074,1.074,0,1,1-1.074-1.074A1.074,1.074,0,0,1,579.714,301.686Z" transform="translate(-577.129 -300.175)" fill="#f7f6f1"/><path d="M577.927,302.484a1.511,1.511,0,1,1,1.51-1.511A1.513,1.513,0,0,1,577.927,302.484Zm0-2.149a.638.638,0,1,0,.637.638A.638.638,0,0,0,577.927,300.335Z" transform="translate(-576.416 -299.462)" fill="#f78d4a"/></g></g></g><g transform="translate(2933.576 -1395.843)"><g transform="translate(0 0)"><circle cx="12.224" cy="12.224" r="12.224" transform="translate(0.437 0.436)" fill="#f7f6f1"/><path d="M1399.737,262.828a12.66,12.66,0,1,1,12.66-12.66A12.675,12.675,0,0,1,1399.737,262.828Zm0-24.447a11.787,11.787,0,1,0,11.787,11.787A11.8,11.8,0,0,0,1399.737,238.381Z" transform="translate(-1387.077 -237.508)" fill="#f78d4a"/></g><g transform="translate(3.728 4.237)"><g transform="translate(0 2.174)"><path d="M1409.122,266.956h-5.514a5.848,5.848,0,0,1-5.848-5.848h0a5.848,5.848,0,0,1,5.848-5.848h5.514a5.848,5.848,0,0,1,5.848,5.848h0A5.848,5.848,0,0,1,1409.122,266.956Z" transform="translate(-1397.433 -254.932)" fill="#f7f6f1"/><path d="M1411.662,266.748H1400a3.1,3.1,0,0,1-3.1-3.1V257.5a3.1,3.1,0,0,1,3.1-3.1h11.664a3.1,3.1,0,0,1,3.1,3.1v6.15A3.1,3.1,0,0,1,1411.662,266.748ZM1400,255.052a2.448,2.448,0,0,0-2.445,2.446v6.15a2.448,2.448,0,0,0,2.445,2.445h11.664a2.448,2.448,0,0,0,2.446-2.445V257.5a2.448,2.448,0,0,0-2.446-2.446Z" transform="translate(-1396.898 -254.397)" fill="#f78d4a"/></g><g transform="translate(4.75 4.168)"><circle cx="3.476" cy="3.476" r="3.476" transform="matrix(0.23, -0.973, 0.973, 0.23, 0, 6.767)" fill="#f7f6f1"/><path d="M1414.3,268.288a3.749,3.749,0,1,1,3.749-3.749A3.754,3.754,0,0,1,1414.3,268.288Zm0-6.953a3.2,3.2,0,1,0,3.2,3.2A3.207,3.207,0,0,0,1414.3,261.335Z" transform="translate(-1410.119 -260.356)" fill="#f78d4a"/></g><rect width="1.356" height="3.735" transform="translate(8.255 6.482)" fill="#f78d4a"/><rect width="1.356" height="3.735" transform="translate(10.8 7.672) rotate(90)" fill="#f78d4a"/><path d="M1418.043,249.348h0a.678.678,0,0,1-.678.678H1411.2a.678.678,0,0,1-.678-.678h0a.678.678,0,0,1,.678-.678h6.167A.678.678,0,0,1,1418.043,249.348Z" transform="translate(-1405.349 -248.67)" fill="#f78d4a"/></g></g><g transform="translate(2838.958 -1463.517)"><g transform="translate(0 0)"><circle cx="12.223" cy="12.223" r="12.223" transform="translate(0.014 24.445) rotate(-87.981)" fill="#f7f6f1"/><path d="M1150.479,84.549a12.66,12.66,0,1,1,12.66-12.66A12.674,12.674,0,0,1,1150.479,84.549Zm0-24.447a11.787,11.787,0,1,0,11.787,11.787A11.8,11.8,0,0,0,1150.479,60.1Z" transform="translate(-1137.819 -59.229)" fill="#f78d4a"/></g><g transform="translate(4.118 3.979)"><g transform="translate(0 3.038)"><rect width="17.235" height="11.713" rx="5.857" transform="translate(17.563 12.041) rotate(180)" fill="#f7f6f1"/><path d="M1163.453,90.082h-11.682a3.108,3.108,0,0,1-3.1-3.1V80.819a3.108,3.108,0,0,1,3.1-3.1h11.682a3.108,3.108,0,0,1,3.1,3.1v6.159A3.108,3.108,0,0,1,1163.453,90.082Zm-11.682-11.714a2.452,2.452,0,0,0-2.449,2.45v6.159a2.452,2.452,0,0,0,2.449,2.449h11.682a2.452,2.452,0,0,0,2.449-2.449V80.819a2.453,2.453,0,0,0-2.449-2.45Z" transform="translate(-1148.667 -77.714)" fill="#f78d4a"/></g><path d="M1162.309,113.136h0a.679.679,0,0,1,.679-.679h6.176a.679.679,0,0,1,.679.679h0a.679.679,0,0,1-.679.679h-6.176A.679.679,0,0,1,1162.309,113.136Z" transform="translate(-1157.13 -96.231)" fill="#f78d4a"/><g transform="translate(1.141)"><path d="M1161.6,86.026a.8.8,0,0,1-.78-.61l-1.263-5.093-.3,1.11a.8.8,0,0,1-.777.6h-6a.8.8,0,1,1,0-1.608h5.385l.946-3.52a.8.8,0,0,1,.776-.6h.008a.8.8,0,0,1,.772.61l.909,3.665,1.06-10.148a.8.8,0,0,1,.791-.72h.008a.8.8,0,0,1,.8.7l1.25,10h1.664a.8.8,0,1,1,0,1.608h-2.373a.8.8,0,0,1-.8-.7l-.469-3.754-.807,7.737a.8.8,0,0,1-.744.719Z" transform="translate(-1151.673 -69.711)" fill="#f7f6f1"/><g transform="translate(0.459 0.459)"><path d="M1162.348,86.317a.344.344,0,0,1-.334-.262l-1.692-6.82-.759,2.827a.344.344,0,0,1-.333.255h-6a.344.344,0,1,1,0-.689h5.738l1.037-3.86a.344.344,0,0,1,.667.006l1.54,6.207,1.332-12.753a.345.345,0,0,1,.339-.309h0a.345.345,0,0,1,.342.3l1.3,10.406h2.069a.344.344,0,0,1,0,.689h-2.373a.344.344,0,0,1-.342-.3l-.966-7.728-1.224,11.72a.345.345,0,0,1-.319.308Z" transform="translate(-1152.883 -70.921)" fill="#f78d4a"/></g></g></g></g><g transform="translate(2967.067 -1315.693)"><g transform="translate(0 0)"><circle cx="10.822" cy="10.822" r="10.822" transform="translate(0 11.379) rotate(-31.717)" fill="#f7f6f1"/><path d="M1496.285,459.161a10.473,10.473,0,1,1-10.472,10.472,10.485,10.485,0,0,1,10.472-10.472Zm0-.7a11.172,11.172,0,1,0,11.172,11.172,11.171,11.171,0,0,0-11.172-11.172Z" transform="translate(-1481.39 -454.738)" fill="#f78d4a"/></g><g transform="translate(8.088 7.688)"><path d="M1509.568,469.409a2.072,2.072,0,0,0-2.884.177l-7.5,8.061a2.018,2.018,0,0,0-.536,1.535,1.449,1.449,0,0,1-.4,1.088l-1.365,1.466a.952.952,0,0,0,0,1.319.927.927,0,0,0,1.33-.027l1.391-1.494a1.45,1.45,0,0,1,1.057-.478,2.018,2.018,0,0,0,1.493-.645l7.551-8.11A2.028,2.028,0,0,0,1509.568,469.409Z" transform="translate(-1496.611 -468.907)" fill="#f78d4a"/><path d="M1498.1,500.636c-.569.611-.693.93-.386,1.216.267.248.545.218,1.209-.5l.916-.983a.155.155,0,0,0-.008-.218l-.575-.536a.154.154,0,0,0-.218.008Z" transform="translate(-1497.193 -487.935)" fill="#f7f6f1"/><path d="M1525.721,472.2a.736.736,0,1,1,.037,1.04A.736.736,0,0,1,1525.721,472.2Z" transform="translate(-1514.549 -470.803)" fill="#f7f6f1"/><g transform="translate(1.375 1.733)"><rect width="14.913" height="0.477" transform="matrix(0.681, -0.732, 0.732, 0.681, 0, 10.916)" fill="#f7f6f1"/></g><g transform="translate(3.157 2.524)"><g transform="translate(6.503)"><path d="M1523.361,477.035a.237.237,0,0,1-.149-.063l-1.077-1a.239.239,0,0,1,.325-.35l1.077,1a.238.238,0,0,1-.177.413Z" transform="translate(-1522.059 -475.556)" fill="#f7f6f1"/></g><g transform="translate(5.42 1.164)"><path d="M1520.506,480.1a.239.239,0,0,1-.148-.064l-1.077-1a.239.239,0,0,1,.325-.35l1.077,1a.239.239,0,0,1-.177.413Z" transform="translate(-1519.204 -478.623)" fill="#f7f6f1"/></g><g transform="translate(4.336 2.328)"><path d="M1517.651,483.169a.237.237,0,0,1-.149-.063l-1.077-1a.239.239,0,1,1,.325-.349l1.077,1a.239.239,0,0,1-.177.413Z" transform="translate(-1516.349 -481.69)" fill="#f7f6f1"/></g><g transform="translate(3.252 3.493)"><path d="M1514.795,486.236a.238.238,0,0,1-.149-.063l-1.077-1a.239.239,0,0,1,.325-.35l1.077,1a.238.238,0,0,1-.177.413Z" transform="translate(-1513.493 -484.757)" fill="#f7f6f1"/></g><g transform="translate(2.168 4.657)"><path d="M1511.94,489.3a.238.238,0,0,1-.149-.064l-1.077-1a.239.239,0,0,1,.325-.349l1.077,1a.239.239,0,0,1-.177.413Z" transform="translate(-1510.638 -487.823)" fill="#f7f6f1"/></g><g transform="translate(1.084 5.821)"><path d="M1509.085,492.37a.237.237,0,0,1-.149-.063l-1.077-1a.239.239,0,1,1,.325-.349l1.077,1a.239.239,0,0,1-.176.413Z" transform="translate(-1507.783 -490.891)" fill="#f7f6f1"/></g><g transform="translate(0 6.985)"><path d="M1506.229,495.437a.238.238,0,0,1-.149-.063l-1.077-1a.239.239,0,0,1,.325-.35l1.077,1a.238.238,0,0,1-.177.413Z" transform="translate(-1504.927 -493.958)" fill="#f7f6f1"/></g></g></g></g><g transform="translate(2653.325 -1426.911)"><g transform="translate(0 0)"><rect width="64.529" height="26.677" rx="12.458" transform="translate(64.529 26.677) rotate(180)" fill="#97c4de"/><path d="M796.661,212s5.721,13.979,4.62,12.6-18.157-9.9-18.157-9.9Z" transform="translate(-732.132 -190.616)" fill="#97c4de"/></g><g transform="translate(6.947 4.504)"><rect width="5.612" height="3.446" fill="#fff"/><rect width="40.224" height="3.446" transform="translate(9.325)" fill="#fff"/></g><g transform="translate(6.947 11.766)"><rect width="22.918" height="3.446" fill="#fff"/><rect width="22.918" height="3.446" transform="translate(26.631)" fill="#fff"/></g><g transform="translate(6.947 19.029)"><rect width="15.996" height="3.446" fill="#fff"/><rect width="29.84" height="3.446" transform="translate(19.709)" fill="#fff"/></g></g><g transform="translate(2633.424 -1486)"><g transform="translate(0 0)" clip-path="url(#a)"><g transform="translate(26.036 36.573)"><g transform="translate(76.979 87.847)"><path d="M900.486,441.813a1.568,1.568,0,0,1-1.28-.659c-26.856-37.617-37.4-72.8-28.205-94.126,4.635-10.746,14.181-17.4,27.605-19.244a1.571,1.571,0,1,1,.427,3.113c-12.451,1.71-20.912,7.556-25.147,17.376-8.755,20.3,1.666,54.34,27.876,91.056a1.571,1.571,0,0,1-1.277,2.484Z" transform="translate(-867.744 -327.77)" fill="#232b59"/></g><g transform="translate(127.064 90.469)"><path d="M1024.774,446.1a1.529,1.529,0,0,1-.359-.042,1.571,1.571,0,0,1-1.173-1.887c10.741-45.984,3.53-78.978-6.8-94.524-4.519-6.8-9.861-10.9-15.447-11.848a1.571,1.571,0,0,1,.526-3.1c6.462,1.1,12.528,5.664,17.539,13.206,10.694,16.092,18.212,50.019,7.243,96.979A1.572,1.572,0,0,1,1024.774,446.1Z" transform="translate(-999.687 -334.677)" fill="#232b59"/></g><path d="M1099.593,490.375c4.783,4,23.575,96.252,20.74,120.715-3.981,34.351-25.4,83.565-25.4,83.565l-38.292,6.285S1058.871,456.284,1099.593,490.375Z" transform="translate(-907.96 -338.782)" fill="#f3a088"/><path d="M991.567,900.2s-27.79,266.717-35.885,305.83c-1.464,7.076-44.044,4.658-45.022-2.5-3.808-27.871-20.963-85.61-17.706-111.4,1.452-11.49,10.149-32.06,15.959-46.021,7.256-17.434-27.574-115.509-.415-192.415C915.844,832.9,991.567,900.2,991.567,900.2Z" transform="translate(-806.153 -563.733)" fill="#224f73"/><path d="M888.437,875.842s-19.828,291.522-25.864,331.005c-1.092,7.143-57.8,9.171-60.943-7.223-5.3-27.627-3.962-79.453-2.059-105.374.848-11.55,8.458-32.547,13.529-46.793,6.333-17.79-33.582-113.907-10.486-192.13C808.862,834.172,888.437,875.842,888.437,875.842Z" transform="translate(-745.851 -563.504)" fill="#275c87"/><path d="M1094.02,976.589c-1.048,8.38,5.523,20.529,10.213,21.736,0,7.816-7.587,20.688-11.6,31.158-4.36,11.37-21-22.254-21-22.254Z" transform="translate(-917.256 -642.452)" fill="#224f73"/><path d="M825.59,358.016c26.188,2.726,64.6,23.874,74.121,52.178,5.37,15.97-6.218,184.872-6.218,184.872l-140.679,3.5s9.647-42.24,10.651-53.3c2.4-26.451-11.164-110.48-27.818-140.22C723.919,384.112,802.732,355.637,825.59,358.016Z" transform="translate(-708.078 -258.601)" fill="#f7f6f1"/><path d="M940.034,253.55s7.013,46.407,6.687,47.731c-.619,2.512-4.266,28.792-8.525,31.25-6.2,3.578-41.442-25.729-43.743-31.25-.508-1.218,6.031-53.207,6.031-53.207Z" transform="translate(-807.318 -190.479)" fill="#f3a088"/><g transform="translate(81.342)"><path d="M939.905,146.642c4.567-26.81-1.28-41.99-3.849-45.677-3.6-5.164-46.2-8.143-52.95,2.979s-3.177,38.329-.4,42.7,33.761,8.341,33.761,8.341Z" transform="translate(-879.24 -96.348)" fill="#232b59"/><path d="M932.01,147.672c4.272,5.388,5.508,11.807,5.626,23.032,9.467-15.882,6.289,19.666-.742,16.122-1.119,11.481-7.019,23.821-17,29.311-5.506,3.029-9.614,2.859-13.5,1.044-12.32-5.759-18.147-19.258-19.345-29.112-3.489.187-7.407-11.878-7.076-18.551.227-4.582,3.739-6.624,5.635-.4-.369-12.232.9-18.789,3.5-21.446,3.282-3.352,13.187,6.767,26.811,6.815C928.678,154.531,929.321,144.281,932.01,147.672Z" transform="translate(-879.685 -127.763)" fill="#f7b690"/><g transform="translate(6.055 42.686)"><path d="M910.4,226.6a100.84,100.84,0,0,1-11.845-.6,2.857,2.857,0,0,1-1.688-1.854c-1.263-3.036-2.185-12.119-1.368-13.5.293-.494.846-.748,2.189-1.009,3.872-.753,17.285-1.7,20.433.7v0c.379.288,1.385,1.057,1.481,6.492.014.785.09,7.694-1.45,8.956C917.4,226.4,914.095,226.6,910.4,226.6Zm-11.2-2.7c2.2.456,15.454.829,17.539.171.782-1.619,1.018-10.679.022-12.022-2.411-1.728-16.794-.994-19.415-.1C897.072,213.862,898.072,222.69,899.2,223.9Zm.047.046Zm-2.135-11.9Z" transform="translate(-895.191 -208.799)" fill="#232b59"/></g><g transform="translate(35.077 42.684)"><path d="M980.853,226.6c-3.7,0-7-.2-7.752-.82-1.541-1.263-1.465-8.172-1.451-8.956.1-5.435,1.1-6.2,1.481-6.492v0c3.151-2.4,16.566-1.448,20.437-.7,1.341.26,1.891.516,2.184,1.009.839,1.416-.068,10.371-1.367,13.5a2.856,2.856,0,0,1-1.688,1.855A100.681,100.681,0,0,1,980.853,226.6Zm-6.339-2.532c2.087.655,15.341.283,17.538-.171,1.111-1.189,2.1-9.768,1.816-11.964-2.717-.885-16.974-1.6-19.376.114C973.5,213.385,973.733,222.446,974.515,224.065Zm17.491-.125Zm2.135-11.9Z" transform="translate(-971.646 -208.794)" fill="#232b59"/></g></g><path d="M695.161,471.371C672.84,507.095,667.6,597.222,672.806,614.683c9.428,31.622,60.755,83.82,60.755,83.82l9.428-20.368s-28.4-64.036-28.282-76.814,7.351-41.794,7.351-56.376S695.161,471.371,695.161,471.371Z" transform="translate(-668.675 -329.013)" fill="#f3a088"/><path d="M664.954,541.577c1.179-21.643,13.88-103.348,38.295-110.418,17.7-5.126,34.768,119.149,25.734,121.246S664.954,541.577,664.954,541.577Z" transform="translate(-664.954 -303.97)" fill="#f7f6f1"/><path d="M1137.086,441.76c16.914,8.249,37.522,80.526,33.442,97.417-17.95,5.892-30,7.07-30,7.07Z" transform="translate(-957.866 -310.642)" fill="#f7f6f1"/><g transform="translate(190.785 175.273)"><path d="M1168.338,611.658h-.037a.785.785,0,0,1-.749-.82c.895-19.7.009-51.615,0-51.935a.785.785,0,0,1,.763-.807.736.736,0,0,1,.808.763c.009.321.9,32.3,0,52.05A.786.786,0,0,1,1168.338,611.658Z" transform="translate(-1167.551 -558.083)" fill="#265a85"/></g><circle cx="12.963" cy="12.963" r="12.963" transform="translate(102.327 192.003)" fill="#97c4de"/><g transform="translate(61.938 175.285)"><path d="M832.711,629.432c-.02,0-.039,0-.059,0a.784.784,0,0,1-.725-.842c.033-.452,3.3-45.634-3.773-69.466a.786.786,0,0,1,1.507-.448c7.155,24.109,3.866,69.575,3.832,70.032A.786.786,0,0,1,832.711,629.432Z" transform="translate(-828.121 -558.112)" fill="#265a85"/></g><path d="M866.742,566.686c5.107,0,36.006-.393,36.661,0s.525,11,.525,11H867.79Z" transform="translate(-790.144 -388.039)" fill="#265a85"/><g transform="translate(76.921 99.517)"><path d="M900.392,460.886a1.568,1.568,0,0,1-1.28-.659c-30.419-42.61-39.642-81.355-24.068-101.117a1.572,1.572,0,0,1,2.468,1.947c-14.451,18.336-4.969,56.546,24.157,97.345a1.571,1.571,0,0,1-1.277,2.484Z" transform="translate(-867.593 -358.513)" fill="#232b59"/></g><g transform="translate(141.394 100.019)"><path d="M1048.194,461.706a1.531,1.531,0,0,1-.359-.042,1.57,1.57,0,0,1-1.173-1.887c11.495-49.209,2.4-83.22-8.883-97.393a1.571,1.571,0,1,1,2.458-1.956c12.281,15.427,21.222,49.816,9.485,100.065A1.572,1.572,0,0,1,1048.194,461.706Z" transform="translate(-1037.438 -359.834)" fill="#232b59"/></g><g transform="translate(130.176 211.153)"><path d="M1038.965,667.556a.787.787,0,0,1-.782-.719c-.45-5.3-4.823-10.219-10.634-11.971-6.644-2-13.3.436-18.262,6.692a.785.785,0,1,1-1.231-.975c5.383-6.789,12.652-9.42,19.946-7.222,6.412,1.934,11.242,7.42,11.746,13.342a.786.786,0,0,1-.717.85C1039.01,667.554,1038.987,667.556,1038.965,667.556Z" transform="translate(-1007.886 -652.603)" fill="#97c4de"/></g><g transform="translate(127.434 199.286)"><path d="M1020.141,678.479a1.178,1.178,0,0,1-.834-2.011c6.569-6.568,17.313-29.138,14.746-42.749-.8-4.219-2.86-7.085-6.135-8.52-4.978-2.175-9.409-2.007-13.172.5-7.811,5.214-12.077,19.717-11.7,39.792a1.177,1.177,0,0,1-1.156,1.2,1.247,1.247,0,0,1-1.2-1.155c-.39-20.895,4.258-36.129,12.751-41.8,4.412-2.944,9.747-3.185,15.425-.7,4.032,1.766,6.558,5.212,7.507,10.242,2.7,14.318-8.525,37.983-15.395,44.852A1.175,1.175,0,0,1,1020.141,678.479Z" transform="translate(-1000.663 -621.341)" fill="#232b59"/></g><g transform="translate(107.534 196.095)"><path d="M957.11,630.677a8.871,8.871,0,1,1,8.871-8.872A8.882,8.882,0,0,1,957.11,630.677Zm0-15.386a6.515,6.515,0,1,0,6.514,6.514A6.522,6.522,0,0,0,957.11,615.291Z" transform="translate(-948.238 -612.935)" fill="#232b59"/></g><path d="M999.186,734.568c-3.851-.589-3.589,8.772-.381,8.641S1002.189,735.027,999.186,734.568Z" transform="translate(-870.552 -492.284)" fill="#97c4de"/><path d="M1048.692,760.091c-2.81-2.7-7.985,5.107-5.287,6.846S1050.883,762.2,1048.692,760.091Z" transform="translate(-899.277 -507.787)" fill="#97c4de"/><path d="M1001.647,754.253c-.1-.491,1.217-.593,1.326,0S1001.745,754.744,1001.647,754.253Z" transform="translate(-873.836 -504.261)" fill="#2e6c9e"/><path d="M1044.453,776.124c.136-.482,1.354.024,1.181.6S1044.317,776.606,1044.453,776.124Z" transform="translate(-900.389 -517.963)" fill="#2e6c9e"/><path d="M1053.778,607.592c-2.553-.459-2.171,2.357-3.994,3.666-1.3.933-6.71-.131-5.9,3.247.635,2.649,4.18.694,7.7,1.6,3.57.916,6.051,4.1,7.249,2.6,2.082-2.6-2.55-4.089-3.532-5.952S1056.42,608.067,1053.778,607.592Z" transform="translate(-899.992 -413.494)" fill="#97c4de"/></g></g></g><g transform="translate(2533.674 -1197.159)"><g transform="translate(0 17.81)"><path d="M837.765,809.708H334.524a.939.939,0,0,1-.938-.938h0a.939.939,0,0,1,.938-.939H837.765a.939.939,0,0,1,.938.939h0A.938.938,0,0,1,837.765,809.708Z" transform="translate(-333.586 -807.831)" fill="#232b59"/></g><path d="M623.95,793.351a16.431,16.431,0,0,0-14.12,8.017,11.067,11.067,0,0,0-2.154-.219,10.951,10.951,0,0,0-5.647,1.565,25.76,25.76,0,0,0-47.476-5.607,12.712,12.712,0,0,0-16.886,11.862H640.372A16.444,16.444,0,0,0,623.95,793.351Z" transform="translate(-460.198 -775.043)" fill="#2e6c9e"/><g transform="translate(94.265 21.459)"><path d="M714.876,830.242l-.234-.047h0c-.078-.015-.157-.027-.236-.041l-1.5,7.47-4.984-.065a51.856,51.856,0,0,1-.819-6.167c-.088.05-.18.1-.267.148-.072-.266-.152-.529-.232-.792a47.7,47.7,0,0,0,.876,7.047h5.878Z" transform="translate(-659.275 -825.33)" fill="#f7f6f1"/><path d="M585.531,829.911c-1.828-3.241-2.735-8.285-3.184-12.466-.117.2-.233.4-.344.6-.03-.01-.06-.017-.09-.027.458,4.008,1.348,8.688,3.074,11.889Z" transform="translate(-581.914 -817.445)" fill="#f7f6f1"/></g><path d="M1334.03,770.576a16.432,16.432,0,0,0-14.12,8.017,10.9,10.9,0,0,0-7.8,1.345,25.76,25.76,0,0,0-47.476-5.606,12.712,12.712,0,0,0-16.885,11.861h102.7A16.444,16.444,0,0,0,1334.03,770.576Z" transform="translate(-900.734 -760.913)" fill="#2e6c9e"/><g transform="translate(62.885 33.318)"><rect width="205.045" height="1.877" rx="0.938" fill="#232b59"/></g><path d="M1295.457,807.7h.505c-1.2-3.5-2.76-8.156-4.079-12.12-.048.086-.1.172-.147.258-.1-.035-.2-.059-.3-.091C1292.344,798.48,1294.077,803.67,1295.457,807.7Z" transform="translate(-927.838 -782.422)" fill="#f7f6f1"/><path d="M1411.092,816.852l2.459-6.488c-.141.076-.283.151-.421.234-.024-.09-.053-.177-.078-.267l-2.472,6.521Z" transform="translate(-1001.757 -791.572)" fill="#f7f6f1"/><path d="M1439.474,814.666h.5c-.807-2.688-1.743-5.738-2.4-7.86-.055.087-.114.171-.167.259-.089-.018-.179-.032-.268-.047C1437.917,809.533,1438.761,812.3,1439.474,814.666Z" transform="translate(-1018.236 -789.385)" fill="#f7f6f1"/><g transform="translate(258.065 24.352)"><path d="M1217.532,826.941H1014.363a.939.939,0,0,1-.938-.939h0a.938.938,0,0,1,.938-.938h203.168a.938.938,0,0,1,.938.938h0A.939.939,0,0,1,1217.532,826.941Z" transform="translate(-1013.425 -825.064)" fill="#232b59"/></g></g><g transform="translate(2907.627 -1204.044)"><path d="M1513.706,756.95c-4.461-2.887-11.441-4.849-17.392-3.836-6.736,1.21-11.411,6.064-12.15,8.058-.282-.034-10.193,2.476-21.142,6.22a99.865,99.865,0,0,0,9.326-12.52c4.411-6.821,5.382-6.885,9.419-10.88-15.371-5.506-26.28,8.743-21.774,22.13a9.87,9.87,0,0,0,.946,1.991c-1.943.648-9.2,3.28-16.807,6.509h3.142q.79-.326,1.582-.647a6.238,6.238,0,0,0-.022.647h4.042c-1.024-.516-1.925-.96-2.6-1.217,6.3-2.513,12.684-4.8,19.085-6.821a19.369,19.369,0,0,0,3.352,8.038h14.048a23.964,23.964,0,0,0-8.561-7.064,22.574,22.574,0,0,0-6.019-1.849q6.025-1.832,12.043-3.343a.634.634,0,0,0,.255-.126,15.31,15.31,0,0,0,4.24,1.888,20.574,20.574,0,0,0,15.42-1.114,45.714,45.714,0,0,0,9.568-6.064Z" transform="translate(-1396.525 -742.778)" fill="#f7a26d"/><path d="M1411.094,759.328a19.777,19.777,0,0,0,1.483,19.915h5.177c3.245-10.779,2.628-13.934,1.943-29.016A20.441,20.441,0,0,0,1411.094,759.328Z" transform="translate(-1374.766 -747.4)" fill="#f7a26d"/><path d="M1318.717,785.5c4.121,8.125,6.322,12.555,8,15.628h12.054C1335.61,791.616,1326.357,785.568,1318.717,785.5Z" transform="translate(-1318.717 -769.281)" fill="#f7a26d"/></g><path d="M1742.7,724h-7v-7H1733v7h-7V726.7h7v7h2.694v-7h7Z" transform="translate(1336.23 -1930.829)" fill="#fff" opacity="0.55"/><path d="M1389.7,444h-7v-7H1380v7h-7V446.7h7v7h2.694v-7h7Z" transform="translate(1555.233 -1757.116)" fill="#fff" opacity="0.55"/><path d="M248.7,547h-7v-7H239v7h-7V549.7h7v7H241.7v-7h7Z" transform="translate(2263.112 -1821.017)" fill="#fff" opacity="0.55"/><g transform="translate(2636.702 -1323.912)" opacity="0.55"><path d="M611.453,439.906a6.453,6.453,0,1,1,6.453-6.453A6.46,6.46,0,0,1,611.453,439.906Zm0-11.008a4.555,4.555,0,1,0,4.555,4.555A4.56,4.56,0,0,0,611.453,428.9Z" transform="translate(-605 -427)" fill="#fff"/></g><g transform="translate(2999.977 -1409.321)" opacity="0.55"><path d="M1568.453,214.906a6.453,6.453,0,1,1,6.453-6.453A6.46,6.46,0,0,1,1568.453,214.906Zm0-11.008a4.555,4.555,0,1,0,4.555,4.555A4.56,4.56,0,0,0,1568.453,203.9Z" transform="translate(-1562 -202)" fill="#fff"/></g><g transform="translate(2552.431 -1166.759)" opacity="0.55"><path d="M389.453,853.906a6.453,6.453,0,1,1,6.453-6.453A6.46,6.46,0,0,1,389.453,853.906Zm0-11.008a4.555,4.555,0,1,0,4.555,4.555A4.56,4.56,0,0,0,389.453,842.9Z" transform="translate(-383 -841)" fill="#fff"/></g></g></g></svg>